<?xml version="1.0" encoding="UTF-8"?>
<svg xmlns="http://www.w3.org/2000/svg" xmlns:xlink="http://www.w3.org/1999/xlink" width="97px" height="36px" viewBox="0 0 97 36" version="1.1">
<defs>
<clipPath id="clip1">
  <path d="M 0.0273438 0.0078125 L 96.855469 0.0078125 L 96.855469 28 L 0.0273438 28 Z M 0.0273438 0.0078125 "/>
</clipPath>
<clipPath id="clip2">
  <path d="M 0.0273438 26 L 96.855469 26 L 96.855469 35.769531 L 0.0273438 35.769531 Z M 0.0273438 26 "/>
</clipPath>
<clipPath id="clip3">
  <path d="M 5.769531 5.746094 L 91.109375 5.746094 L 91.109375 20.75 L 5.769531 20.75 Z M 5.769531 5.746094 "/>
</clipPath>
<clipPath id="clip4">
  <path d="M 36.351562 27.28125 L 60.527344 27.28125 L 60.527344 34.988281 L 36.351562 34.988281 Z M 36.351562 27.28125 "/>
</clipPath>
</defs>
<g id="surface1">
<g clip-path="url(#clip1)" clip-rule="nonzero">
<path style="fill:none;stroke-width:8.962371;stroke-linecap:butt;stroke-linejoin:miter;stroke:rgb(92.54902%,56.862745%,19.215686%);stroke-opacity:1;stroke-miterlimit:4;" d="M -0.00137635 -0.000000000000003754 L 395.522962 -0.000000000000003754 L 395.522962 109.197266 L -0.00137635 109.197266 Z M -0.00137635 -0.000000000000003754 " transform="matrix(0.24481,0,0,0.244898,0.0276807,0.000000000000000919)"/>
</g>
<g clip-path="url(#clip2)" clip-rule="nonzero">
<path style=" stroke:none;fill-rule:nonzero;fill:rgb(92.54902%,56.862745%,19.215686%);fill-opacity:1;" d="M 0.0273438 26.742188 L 96.855469 26.742188 L 96.855469 36.011719 L 0.0273438 36.011719 Z M 0.0273438 26.742188 "/>
</g>
<g clip-path="url(#clip3)" clip-rule="nonzero">
<path style=" stroke:none;fill-rule:nonzero;fill:rgb(92.54902%,56.862745%,19.215686%);fill-opacity:1;" d="M 12.863281 16.867188 C 12.949219 16.980469 13.003906 17.070312 13.023438 17.140625 C 13.042969 17.210938 13.0625 17.28125 13.085938 17.347656 C 13.113281 17.417969 13.136719 17.480469 13.152344 17.546875 C 13.171875 17.609375 13.183594 17.644531 13.183594 17.65625 C 13.183594 17.746094 13.167969 17.816406 13.136719 17.875 C 13.105469 17.929688 13.054688 18.003906 12.996094 18.089844 C 12.492188 18.28125 11.996094 18.464844 11.503906 18.644531 C 11.015625 18.828125 10.515625 19.007812 10 19.1875 C 9.863281 19.222656 9.734375 19.261719 9.621094 19.304688 C 9.507812 19.351562 9.382812 19.386719 9.242188 19.410156 C 9.222656 19.4375 9.179688 19.457031 9.125 19.476562 C 9.066406 19.496094 9 19.519531 8.921875 19.542969 C 8.847656 19.566406 8.777344 19.589844 8.707031 19.609375 C 8.636719 19.628906 8.59375 19.636719 8.570312 19.636719 C 8.464844 19.664062 8.355469 19.671875 8.238281 19.664062 C 8.117188 19.660156 8.003906 19.664062 7.890625 19.675781 C 7.824219 19.6875 7.78125 19.71875 7.757812 19.769531 C 7.734375 19.820312 7.703125 19.875 7.671875 19.929688 C 7.640625 19.984375 7.59375 20.035156 7.53125 20.082031 C 7.46875 20.125 7.382812 20.148438 7.269531 20.148438 C 7.15625 20.148438 7.042969 20.140625 6.929688 20.128906 C 6.816406 20.117188 6.695312 20.082031 6.570312 20.03125 C 6.542969 19.996094 6.535156 19.949219 6.542969 19.894531 C 6.546875 19.835938 6.539062 19.789062 6.511719 19.75 C 6.398438 19.738281 6.3125 19.746094 6.25 19.777344 C 6.1875 19.8125 6.125 19.835938 6.058594 19.847656 C 6.023438 19.796875 5.992188 19.734375 5.976562 19.664062 C 5.957031 19.597656 5.921875 19.535156 5.871094 19.488281 C 5.859375 19.421875 5.851562 19.359375 5.851562 19.296875 C 5.851562 19.238281 5.851562 19.175781 5.851562 19.109375 C 5.851562 19.023438 5.855469 18.917969 5.863281 18.800781 C 5.867188 18.679688 5.890625 18.589844 5.929688 18.527344 C 5.96875 17.808594 5.988281 17.089844 5.988281 16.367188 C 5.988281 15.644531 5.988281 14.925781 5.988281 14.210938 C 5.988281 14.148438 5.988281 14.054688 5.988281 13.9375 C 5.988281 13.816406 5.984375 13.695312 5.976562 13.570312 C 5.96875 13.445312 5.964844 13.328125 5.957031 13.21875 C 5.949219 13.113281 5.941406 13.035156 5.929688 12.984375 C 5.941406 12.894531 5.949219 12.8125 5.949219 12.730469 C 5.949219 12.648438 5.949219 12.5625 5.949219 12.472656 C 5.949219 12.398438 5.949219 12.332031 5.949219 12.269531 C 5.949219 12.203125 5.9375 12.140625 5.910156 12.082031 C 5.921875 12.027344 5.929688 11.960938 5.929688 11.871094 C 5.929688 11.808594 5.921875 11.746094 5.910156 11.683594 C 5.898438 11.621094 5.890625 11.558594 5.890625 11.492188 C 5.890625 11.394531 5.894531 11.296875 5.902344 11.203125 C 5.90625 11.109375 5.910156 11.011719 5.910156 10.910156 C 5.910156 10.582031 5.894531 10.261719 5.863281 9.941406 C 5.832031 9.621094 5.816406 9.296875 5.816406 8.96875 C 5.816406 8.542969 5.8125 8.113281 5.804688 7.6875 C 5.800781 7.261719 5.792969 6.832031 5.777344 6.40625 C 5.828125 6.28125 5.851562 6.171875 5.851562 6.085938 C 6.03125 5.996094 6.167969 5.96875 6.269531 5.992188 C 6.371094 6.015625 6.46875 6.027344 6.570312 6.027344 C 6.632812 6.027344 6.6875 6.023438 6.738281 6.011719 C 6.789062 6 6.839844 5.980469 6.890625 5.953125 C 6.953125 5.96875 7.003906 5.984375 7.046875 6 C 7.09375 6.019531 7.148438 6.027344 7.210938 6.027344 C 7.398438 5.992188 7.503906 5.988281 7.523438 6.011719 C 7.539062 6.035156 7.566406 6.058594 7.605469 6.085938 C 7.65625 6.074219 7.695312 6.050781 7.726562 6.019531 C 7.757812 5.988281 7.800781 5.972656 7.851562 5.972656 C 7.925781 5.972656 7.980469 6.019531 8.019531 6.113281 C 8.058594 6.207031 8.101562 6.285156 8.152344 6.347656 C 8.152344 6.488281 8.175781 6.613281 8.230469 6.726562 C 8.253906 7.242188 8.261719 7.75 8.257812 8.253906 C 8.25 8.757812 8.265625 9.257812 8.300781 9.761719 C 8.316406 9.988281 8.332031 10.222656 8.347656 10.464844 C 8.371094 10.714844 8.378906 10.949219 8.378906 11.171875 C 8.378906 11.550781 8.382812 11.933594 8.386719 12.316406 C 8.394531 12.699219 8.398438 13.085938 8.398438 13.472656 C 8.398438 13.539062 8.402344 13.59375 8.40625 13.644531 C 8.410156 13.695312 8.414062 13.75 8.414062 13.8125 C 8.414062 13.964844 8.410156 14.109375 8.398438 14.246094 C 8.386719 14.382812 8.378906 14.523438 8.378906 14.664062 L 8.378906 16.132812 C 8.378906 16.257812 8.375 16.386719 8.367188 16.519531 C 8.363281 16.652344 8.367188 16.78125 8.378906 16.90625 L 8.453125 17.128906 C 8.59375 17.082031 8.734375 17.027344 8.878906 16.972656 C 9.019531 16.914062 9.175781 16.875 9.339844 16.847656 C 9.441406 16.820312 9.535156 16.796875 9.621094 16.773438 C 9.710938 16.75 9.804688 16.722656 9.902344 16.695312 C 10.082031 16.597656 10.21875 16.527344 10.320312 16.488281 C 10.421875 16.453125 10.519531 16.414062 10.621094 16.375 C 10.835938 16.300781 11.042969 16.222656 11.242188 16.140625 C 11.445312 16.058594 11.652344 15.980469 11.863281 15.90625 C 11.964844 15.929688 12.046875 15.917969 12.105469 15.867188 C 12.234375 15.894531 12.347656 15.90625 12.445312 15.90625 C 12.585938 16.042969 12.671875 16.152344 12.703125 16.226562 C 12.730469 16.300781 12.78125 16.371094 12.84375 16.433594 C 12.820312 16.496094 12.820312 16.535156 12.851562 16.546875 C 12.886719 16.558594 12.90625 16.589844 12.917969 16.640625 C 12.96875 16.664062 12.976562 16.699219 12.9375 16.742188 C 12.902344 16.785156 12.875 16.828125 12.863281 16.867188 Z M 17.007812 15.152344 C 17.035156 15.214844 17.125 15.347656 17.28125 15.546875 C 17.4375 15.746094 17.617188 15.96875 17.816406 16.207031 C 18.019531 16.445312 18.210938 16.675781 18.394531 16.894531 C 18.574219 17.113281 18.703125 17.277344 18.777344 17.375 C 18.914062 17.550781 19.050781 17.722656 19.183594 17.894531 C 19.316406 18.0625 19.4375 18.242188 19.550781 18.429688 L 19.890625 18.996094 C 19.992188 19.125 20.082031 19.230469 20.164062 19.316406 C 20.242188 19.40625 20.308594 19.523438 20.359375 19.675781 C 20.386719 19.777344 20.398438 19.84375 20.398438 19.882812 C 20.398438 19.96875 20.367188 20.03125 20.304688 20.070312 C 20.203125 20.070312 20.148438 20.085938 20.144531 20.117188 C 20.136719 20.152344 20.109375 20.179688 20.058594 20.203125 C 20.007812 20.226562 19.929688 20.246094 19.824219 20.253906 C 19.714844 20.257812 19.632812 20.261719 19.570312 20.261719 C 19.457031 20.261719 19.316406 20.257812 19.144531 20.253906 C 18.976562 20.246094 18.839844 20.261719 18.742188 20.296875 C 18.714844 20.3125 18.675781 20.328125 18.628906 20.351562 C 18.578125 20.378906 18.539062 20.390625 18.511719 20.390625 C 18.414062 20.390625 18.339844 20.375 18.296875 20.34375 C 18.253906 20.3125 18.195312 20.292969 18.117188 20.277344 C 18.019531 20.164062 17.933594 20.050781 17.863281 19.929688 C 17.796875 19.808594 17.714844 19.6875 17.628906 19.5625 C 17.542969 19.472656 17.453125 19.394531 17.367188 19.324219 C 17.277344 19.257812 17.199219 19.179688 17.140625 19.089844 C 16.949219 18.816406 16.757812 18.542969 16.554688 18.28125 C 16.351562 18.015625 16.144531 17.761719 15.929688 17.507812 C 15.832031 17.367188 15.722656 17.242188 15.609375 17.128906 C 15.496094 17.015625 15.390625 16.890625 15.289062 16.753906 C 15.191406 16.628906 15.097656 16.492188 15.007812 16.347656 C 14.921875 16.207031 14.835938 16.0625 14.746094 15.925781 C 14.671875 15.8125 14.570312 15.664062 14.445312 15.480469 C 14.320312 15.296875 14.179688 15.117188 14.027344 14.9375 C 13.878906 14.753906 13.730469 14.582031 13.578125 14.414062 C 13.425781 14.253906 13.300781 14.128906 13.199219 14.042969 C 13.1875 13.964844 13.15625 13.902344 13.105469 13.859375 C 13.054688 13.816406 13 13.773438 12.9375 13.734375 C 12.910156 13.675781 12.882812 13.617188 12.851562 13.558594 C 12.820312 13.503906 12.804688 13.441406 12.804688 13.382812 C 12.804688 13.292969 12.824219 13.210938 12.863281 13.132812 C 12.886719 13.085938 12.902344 13.039062 12.910156 12.996094 C 12.914062 12.953125 12.929688 12.902344 12.957031 12.851562 C 13.019531 12.714844 13.101562 12.578125 13.210938 12.445312 C 13.316406 12.316406 13.402344 12.175781 13.464844 12.023438 C 13.492188 11.984375 13.503906 11.945312 13.503906 11.898438 C 13.503906 11.855469 13.515625 11.816406 13.539062 11.777344 C 13.566406 11.679688 13.617188 11.59375 13.699219 11.523438 C 13.78125 11.453125 13.847656 11.375 13.898438 11.289062 C 13.960938 11.1875 14.019531 11.085938 14.074219 10.976562 C 14.132812 10.871094 14.191406 10.753906 14.257812 10.628906 C 14.445312 10.316406 14.640625 10.011719 14.851562 9.714844 C 15.054688 9.417969 15.265625 9.121094 15.480469 8.820312 C 15.644531 8.566406 15.804688 8.324219 15.960938 8.09375 C 16.117188 7.859375 16.277344 7.625 16.441406 7.386719 C 16.527344 7.273438 16.625 7.140625 16.726562 6.988281 C 16.828125 6.839844 16.9375 6.6875 17.054688 6.535156 C 17.171875 6.386719 17.292969 6.25 17.421875 6.125 C 17.546875 5.996094 17.671875 5.898438 17.796875 5.824219 C 17.988281 5.808594 18.113281 5.851562 18.171875 5.941406 C 18.238281 6.039062 18.332031 6.085938 18.457031 6.085938 C 18.621094 6.125 18.726562 6.175781 18.777344 6.234375 C 18.828125 6.300781 18.882812 6.363281 18.949219 6.425781 C 19.125 6.425781 19.265625 6.457031 19.375 6.519531 C 19.480469 6.582031 19.582031 6.675781 19.683594 6.804688 C 19.644531 6.941406 19.585938 7.0625 19.511719 7.171875 C 19.4375 7.277344 19.367188 7.386719 19.304688 7.5 C 19.203125 7.550781 19.132812 7.621094 19.085938 7.707031 C 19.042969 7.792969 18.976562 7.863281 18.890625 7.914062 C 18.765625 8.128906 18.632812 8.332031 18.496094 8.523438 C 18.359375 8.71875 18.21875 8.914062 18.082031 9.101562 C 18.007812 9.214844 17.925781 9.3125 17.84375 9.402344 C 17.761719 9.492188 17.691406 9.585938 17.628906 9.6875 C 17.601562 9.722656 17.582031 9.761719 17.5625 9.804688 C 17.542969 9.851562 17.519531 9.894531 17.496094 9.929688 C 17.347656 10.167969 17.183594 10.394531 17.007812 10.601562 C 16.832031 10.808594 16.667969 11.035156 16.519531 11.289062 C 16.464844 11.375 16.425781 11.46875 16.394531 11.5625 C 16.363281 11.65625 16.320312 11.746094 16.269531 11.832031 C 16.222656 11.910156 16.148438 12.011719 16.054688 12.132812 C 15.960938 12.261719 15.871094 12.394531 15.78125 12.539062 C 15.691406 12.6875 15.613281 12.824219 15.546875 12.957031 C 15.476562 13.085938 15.441406 13.195312 15.441406 13.285156 C 15.453125 13.347656 15.535156 13.472656 15.679688 13.65625 C 15.824219 13.835938 15.988281 14.03125 16.167969 14.238281 C 16.347656 14.445312 16.523438 14.636719 16.6875 14.820312 C 16.847656 15.003906 16.957031 15.113281 17.007812 15.152344 Z M 18.25 11.722656 C 18.335938 11.910156 18.433594 12.074219 18.53125 12.210938 C 18.570312 12.261719 18.613281 12.308594 18.664062 12.34375 C 18.714844 12.382812 18.753906 12.429688 18.777344 12.492188 C 18.804688 12.519531 18.828125 12.574219 18.851562 12.65625 C 18.878906 12.734375 18.902344 12.792969 18.929688 12.832031 C 18.964844 12.933594 19.039062 13.046875 19.152344 13.171875 C 19.265625 13.296875 19.324219 13.410156 19.324219 13.511719 C 19.324219 13.574219 19.3125 13.644531 19.289062 13.722656 C 19.261719 13.796875 19.242188 13.863281 19.230469 13.925781 C 19.21875 14.003906 19.210938 14.082031 19.210938 14.160156 C 19.210938 14.242188 19.1875 14.316406 19.136719 14.382812 C 19.074219 14.441406 19.003906 14.480469 18.929688 14.492188 C 18.855469 14.503906 18.785156 14.535156 18.722656 14.585938 C 18.695312 14.609375 18.65625 14.65625 18.609375 14.714844 C 18.558594 14.78125 18.507812 14.851562 18.457031 14.925781 C 18.40625 15 18.359375 15.070312 18.316406 15.140625 C 18.273438 15.210938 18.25 15.265625 18.25 15.304688 C 18.097656 15.316406 18 15.320312 17.957031 15.3125 C 17.914062 15.304688 17.867188 15.308594 17.816406 15.324219 C 17.753906 15.257812 17.6875 15.203125 17.617188 15.160156 C 17.550781 15.117188 17.46875 15.074219 17.367188 15.039062 C 17.339844 14.9375 17.285156 14.820312 17.195312 14.691406 C 17.105469 14.558594 17.03125 14.449219 16.96875 14.363281 L 16.839844 14.191406 C 16.648438 13.925781 16.476562 13.671875 16.320312 13.425781 C 16.160156 13.183594 16.042969 12.910156 15.96875 12.609375 C 16.210938 12.429688 16.394531 12.300781 16.527344 12.210938 C 16.660156 12.125 16.800781 12.042969 16.949219 11.96875 C 17.101562 11.890625 17.25 11.816406 17.394531 11.75 C 17.539062 11.679688 17.671875 11.59375 17.796875 11.492188 C 17.898438 11.492188 17.96875 11.5 18.007812 11.511719 C 18.042969 11.527344 18.066406 11.539062 18.082031 11.550781 C 18.09375 11.5625 18.109375 11.585938 18.125 11.617188 C 18.148438 11.648438 18.1875 11.683594 18.25 11.722656 Z M 24.316406 15.152344 C 24.34375 15.214844 24.433594 15.347656 24.589844 15.546875 C 24.746094 15.746094 24.925781 15.96875 25.125 16.207031 C 25.328125 16.445312 25.519531 16.675781 25.703125 16.894531 C 25.882812 17.113281 26.011719 17.277344 26.085938 17.375 C 26.226562 17.550781 26.363281 17.722656 26.492188 17.894531 C 26.625 18.0625 26.746094 18.242188 26.859375 18.429688 L 27.199219 18.996094 C 27.300781 19.125 27.390625 19.230469 27.472656 19.316406 C 27.554688 19.40625 27.621094 19.523438 27.667969 19.675781 C 27.695312 19.777344 27.707031 19.84375 27.707031 19.882812 C 27.707031 19.96875 27.675781 20.03125 27.617188 20.070312 C 27.511719 20.070312 27.457031 20.085938 27.453125 20.117188 C 27.449219 20.152344 27.421875 20.179688 27.367188 20.203125 C 27.320312 20.226562 27.242188 20.246094 27.132812 20.253906 C 27.027344 20.257812 26.941406 20.261719 26.878906 20.261719 C 26.765625 20.261719 26.625 20.257812 26.453125 20.253906 C 26.285156 20.246094 26.148438 20.261719 26.050781 20.296875 C 26.023438 20.3125 25.984375 20.328125 25.9375 20.351562 C 25.886719 20.378906 25.847656 20.390625 25.824219 20.390625 C 25.726562 20.390625 25.652344 20.375 25.609375 20.34375 C 25.5625 20.3125 25.503906 20.292969 25.425781 20.277344 C 25.328125 20.164062 25.242188 20.050781 25.171875 19.929688 C 25.101562 19.808594 25.023438 19.6875 24.9375 19.5625 C 24.851562 19.472656 24.761719 19.394531 24.675781 19.324219 C 24.585938 19.257812 24.511719 19.179688 24.449219 19.089844 C 24.257812 18.816406 24.066406 18.542969 23.863281 18.28125 C 23.664062 18.015625 23.457031 17.761719 23.242188 17.507812 C 23.144531 17.367188 23.035156 17.242188 22.921875 17.128906 C 22.808594 17.015625 22.703125 16.890625 22.601562 16.753906 C 22.503906 16.628906 22.40625 16.492188 22.316406 16.347656 C 22.230469 16.207031 22.140625 16.0625 22.054688 15.925781 C 21.980469 15.8125 21.878906 15.664062 21.753906 15.480469 C 21.628906 15.296875 21.492188 15.117188 21.339844 14.9375 C 21.1875 14.753906 21.039062 14.582031 20.886719 14.414062 C 20.738281 14.253906 20.613281 14.128906 20.511719 14.042969 C 20.5 13.964844 20.464844 13.902344 20.414062 13.859375 C 20.367188 13.816406 20.308594 13.773438 20.246094 13.734375 C 20.222656 13.675781 20.195312 13.617188 20.160156 13.558594 C 20.128906 13.503906 20.113281 13.441406 20.113281 13.382812 C 20.113281 13.292969 20.132812 13.210938 20.171875 13.132812 C 20.199219 13.085938 20.214844 13.039062 20.21875 12.996094 C 20.222656 12.953125 20.238281 12.902344 20.265625 12.851562 C 20.328125 12.714844 20.414062 12.578125 20.519531 12.445312 C 20.628906 12.316406 20.710938 12.175781 20.773438 12.023438 C 20.800781 11.984375 20.8125 11.945312 20.8125 11.898438 C 20.8125 11.855469 20.824219 11.816406 20.851562 11.777344 C 20.875 11.679688 20.925781 11.59375 21.007812 11.523438 C 21.089844 11.453125 21.15625 11.375 21.207031 11.289062 C 21.269531 11.1875 21.332031 11.085938 21.386719 10.976562 C 21.445312 10.871094 21.503906 10.753906 21.566406 10.628906 C 21.753906 10.316406 21.949219 10.011719 22.160156 9.714844 C 22.367188 9.417969 22.578125 9.121094 22.792969 8.820312 C 22.953125 8.566406 23.113281 8.324219 23.269531 8.09375 C 23.425781 7.859375 23.589844 7.625 23.753906 7.386719 C 23.839844 7.273438 23.933594 7.140625 24.035156 6.988281 C 24.136719 6.839844 24.246094 6.6875 24.363281 6.535156 C 24.484375 6.386719 24.605469 6.25 24.730469 6.125 C 24.855469 5.996094 24.980469 5.898438 25.105469 5.824219 C 25.296875 5.808594 25.421875 5.851562 25.484375 5.941406 C 25.546875 6.039062 25.640625 6.085938 25.765625 6.085938 C 25.929688 6.125 26.035156 6.175781 26.085938 6.234375 C 26.140625 6.300781 26.195312 6.363281 26.257812 6.425781 C 26.433594 6.425781 26.574219 6.457031 26.683594 6.519531 C 26.789062 6.582031 26.890625 6.675781 26.992188 6.804688 C 26.953125 6.941406 26.898438 7.0625 26.820312 7.171875 C 26.746094 7.277344 26.679688 7.386719 26.617188 7.5 C 26.515625 7.550781 26.445312 7.621094 26.398438 7.707031 C 26.355469 7.792969 26.289062 7.863281 26.199219 7.914062 C 26.074219 8.128906 25.941406 8.332031 25.804688 8.523438 C 25.667969 8.71875 25.527344 8.914062 25.390625 9.101562 C 25.3125 9.214844 25.234375 9.3125 25.152344 9.402344 C 25.074219 9.492188 25 9.585938 24.9375 9.6875 C 24.910156 9.722656 24.890625 9.761719 24.871094 9.804688 C 24.855469 9.851562 24.832031 9.894531 24.804688 9.929688 C 24.65625 10.167969 24.492188 10.394531 24.316406 10.601562 C 24.140625 10.808594 23.976562 11.035156 23.828125 11.289062 C 23.777344 11.375 23.734375 11.46875 23.703125 11.5625 C 23.671875 11.65625 23.632812 11.746094 23.582031 11.832031 C 23.53125 11.910156 23.457031 12.011719 23.363281 12.132812 C 23.269531 12.261719 23.179688 12.394531 23.09375 12.539062 C 23.003906 12.6875 22.925781 12.824219 22.859375 12.957031 C 22.789062 13.085938 22.753906 13.195312 22.753906 13.285156 C 22.765625 13.347656 22.84375 13.472656 22.988281 13.65625 C 23.132812 13.835938 23.296875 14.03125 23.480469 14.238281 C 23.660156 14.445312 23.832031 14.636719 23.996094 14.820312 C 24.160156 15.003906 24.265625 15.113281 24.316406 15.152344 Z M 25.558594 11.722656 C 25.644531 11.910156 25.742188 12.074219 25.84375 12.210938 C 25.878906 12.261719 25.925781 12.308594 25.976562 12.34375 C 26.023438 12.382812 26.0625 12.429688 26.085938 12.492188 C 26.113281 12.519531 26.140625 12.574219 26.164062 12.65625 C 26.1875 12.734375 26.210938 12.792969 26.238281 12.832031 C 26.277344 12.933594 26.351562 13.046875 26.464844 13.171875 C 26.578125 13.296875 26.636719 13.410156 26.636719 13.511719 C 26.636719 13.574219 26.621094 13.644531 26.597656 13.722656 C 26.570312 13.796875 26.550781 13.863281 26.539062 13.925781 C 26.527344 14.003906 26.519531 14.082031 26.519531 14.160156 C 26.519531 14.242188 26.496094 14.316406 26.445312 14.382812 C 26.382812 14.441406 26.3125 14.480469 26.238281 14.492188 C 26.164062 14.503906 26.09375 14.535156 26.03125 14.585938 C 26.007812 14.609375 25.96875 14.65625 25.917969 14.714844 C 25.867188 14.78125 25.820312 14.851562 25.765625 14.925781 C 25.714844 15 25.667969 15.070312 25.625 15.140625 C 25.582031 15.210938 25.558594 15.265625 25.558594 15.304688 C 25.410156 15.316406 25.3125 15.320312 25.269531 15.3125 C 25.226562 15.304688 25.179688 15.308594 25.125 15.324219 C 25.066406 15.257812 25 15.203125 24.929688 15.160156 C 24.859375 15.117188 24.777344 15.074219 24.675781 15.039062 C 24.648438 14.9375 24.59375 14.820312 24.503906 14.691406 C 24.417969 14.558594 24.34375 14.449219 24.277344 14.363281 L 24.144531 14.191406 C 23.957031 13.925781 23.785156 13.671875 23.628906 13.425781 C 23.472656 13.183594 23.355469 12.910156 23.277344 12.609375 C 23.515625 12.429688 23.703125 12.300781 23.835938 12.210938 C 23.96875 12.125 24.109375 12.042969 24.257812 11.96875 C 24.410156 11.890625 24.558594 11.816406 24.703125 11.75 C 24.847656 11.679688 24.980469 11.59375 25.105469 11.492188 C 25.207031 11.492188 25.277344 11.5 25.316406 11.511719 C 25.351562 11.527344 25.375 11.539062 25.390625 11.550781 C 25.402344 11.5625 25.417969 11.585938 25.4375 11.617188 C 25.457031 11.648438 25.496094 11.683594 25.558594 11.722656 Z M 36.542969 6.613281 C 36.519531 6.664062 36.507812 6.714844 36.515625 6.765625 C 36.523438 6.8125 36.523438 6.871094 36.523438 6.933594 C 36.5 7.082031 36.5 7.160156 36.523438 7.160156 C 36.550781 7.160156 36.5625 7.171875 36.5625 7.195312 L 36.429688 7.386719 C 36.429688 7.460938 36.414062 7.53125 36.382812 7.59375 C 36.351562 7.65625 36.34375 7.730469 36.355469 7.820312 C 36.316406 7.882812 36.28125 7.945312 36.25 8.007812 C 36.21875 8.070312 36.171875 8.136719 36.109375 8.195312 L 35.867188 8.195312 C 35.726562 8.195312 35.578125 8.207031 35.421875 8.222656 C 35.265625 8.246094 35.113281 8.253906 34.960938 8.253906 C 34.9375 8.253906 34.90625 8.25 34.867188 8.242188 C 34.832031 8.238281 34.792969 8.234375 34.753906 8.234375 C 34.726562 8.234375 34.695312 8.238281 34.65625 8.242188 C 34.621094 8.25 34.578125 8.253906 34.527344 8.253906 C 34.339844 8.253906 34.152344 8.246094 33.972656 8.222656 C 33.789062 8.207031 33.597656 8.195312 33.394531 8.195312 C 33.347656 8.195312 33.296875 8.195312 33.246094 8.195312 C 33.195312 8.195312 33.140625 8.203125 33.074219 8.214844 C 33.0625 8.429688 33.054688 8.644531 33.046875 8.863281 C 33.042969 9.085938 33.039062 9.308594 33.039062 9.535156 C 33.039062 9.597656 33.035156 9.664062 33.023438 9.734375 C 33.007812 9.804688 33.003906 9.867188 33.003906 9.929688 C 32.988281 10.09375 32.980469 10.25 32.972656 10.402344 C 32.964844 10.554688 32.964844 10.710938 32.964844 10.871094 C 32.964844 11.222656 32.964844 11.578125 32.972656 11.929688 C 32.980469 12.28125 32.988281 12.636719 33.003906 13.003906 C 33.015625 13.191406 33.027344 13.375 33.039062 13.550781 C 33.050781 13.726562 33.054688 13.90625 33.054688 14.09375 C 33.054688 14.523438 33.050781 14.945312 33.039062 15.367188 C 33.027344 15.789062 33.023438 16.210938 33.023438 16.640625 C 33.023438 16.777344 33.015625 16.90625 33.003906 17.027344 C 32.988281 17.148438 32.984375 17.277344 32.984375 17.414062 C 32.984375 17.703125 32.988281 17.992188 33.003906 18.28125 C 33.015625 18.570312 33.023438 18.859375 33.023438 19.148438 C 33.023438 19.289062 33.019531 19.425781 33.011719 19.5625 C 33.003906 19.699219 33.003906 19.839844 33.003906 19.976562 C 32.9375 20.078125 32.894531 20.164062 32.871094 20.242188 C 32.84375 20.316406 32.769531 20.351562 32.644531 20.351562 C 32.554688 20.328125 32.515625 20.300781 32.519531 20.269531 C 32.527344 20.238281 32.519531 20.207031 32.492188 20.183594 C 32.378906 20.171875 32.292969 20.183594 32.238281 20.214844 C 32.183594 20.246094 32.117188 20.273438 32.042969 20.296875 C 32.003906 20.285156 31.960938 20.277344 31.917969 20.277344 C 31.875 20.277344 31.832031 20.277344 31.792969 20.277344 C 31.769531 20.277344 31.746094 20.289062 31.722656 20.304688 C 31.695312 20.324219 31.640625 20.332031 31.550781 20.332031 C 31.472656 20.347656 31.429688 20.335938 31.421875 20.296875 C 31.40625 20.261719 31.367188 20.242188 31.304688 20.242188 C 31.242188 20.277344 31.171875 20.308594 31.089844 20.324219 C 31.007812 20.34375 30.925781 20.351562 30.851562 20.351562 C 30.777344 20.304688 30.742188 20.257812 30.75 20.214844 C 30.757812 20.167969 30.746094 20.121094 30.722656 20.070312 C 30.707031 20.046875 30.6875 20.011719 30.65625 19.964844 C 30.625 19.921875 30.597656 19.886719 30.570312 19.863281 C 30.597656 19.6875 30.617188 19.53125 30.628906 19.390625 C 30.640625 19.253906 30.644531 19.105469 30.644531 18.941406 C 30.644531 18.613281 30.632812 18.292969 30.609375 17.980469 C 30.585938 17.664062 30.570312 17.34375 30.570312 17.015625 C 30.570312 16.917969 30.585938 16.808594 30.609375 16.695312 C 30.632812 16.582031 30.644531 16.464844 30.644531 16.339844 C 30.621094 16.238281 30.617188 16.179688 30.628906 16.160156 C 30.640625 16.140625 30.644531 16.121094 30.644531 16.09375 C 30.644531 16.019531 30.640625 15.945312 30.636719 15.867188 C 30.632812 15.792969 30.628906 15.71875 30.628906 15.644531 C 30.628906 15.492188 30.632812 15.339844 30.636719 15.1875 C 30.640625 15.039062 30.644531 14.886719 30.644531 14.734375 C 30.644531 14.675781 30.640625 14.609375 30.636719 14.539062 C 30.632812 14.46875 30.628906 14.402344 30.628906 14.34375 C 30.617188 14.230469 30.613281 14.109375 30.617188 13.984375 C 30.625 13.855469 30.628906 13.730469 30.628906 13.605469 C 30.628906 13.003906 30.617188 12.40625 30.597656 11.8125 C 30.582031 11.222656 30.570312 10.628906 30.570312 10.027344 C 30.570312 9.734375 30.585938 9.441406 30.617188 9.140625 C 30.648438 8.835938 30.664062 8.535156 30.664062 8.234375 C 30.664062 8.195312 30.652344 8.148438 30.628906 8.085938 C 30.601562 8.019531 30.578125 7.976562 30.550781 7.949219 C 30.492188 7.949219 30.429688 7.949219 30.375 7.941406 C 30.316406 7.9375 30.257812 7.933594 30.191406 7.933594 C 30.058594 7.933594 29.925781 7.953125 29.800781 7.988281 C 29.558594 8 29.328125 8.015625 29.109375 8.035156 C 28.890625 8.054688 28.667969 8.070312 28.441406 8.085938 C 28.292969 8.070312 28.199219 8.066406 28.167969 8.074219 C 28.136719 8.082031 28.101562 8.085938 28.0625 8.085938 C 27.960938 8.085938 27.886719 8.058594 27.839844 8.007812 L 27.839844 7.765625 C 27.765625 7.613281 27.734375 7.53125 27.742188 7.515625 C 27.753906 7.503906 27.761719 7.488281 27.761719 7.464844 C 27.761719 7.425781 27.726562 7.382812 27.65625 7.339844 C 27.589844 7.296875 27.558594 7.222656 27.558594 7.125 C 27.542969 7.023438 27.519531 6.949219 27.480469 6.894531 C 27.441406 6.84375 27.421875 6.792969 27.421875 6.746094 C 27.421875 6.65625 27.441406 6.558594 27.480469 6.445312 C 27.59375 6.378906 27.703125 6.335938 27.8125 6.3125 C 27.917969 6.289062 28.039062 6.253906 28.179688 6.214844 C 28.253906 6.191406 28.320312 6.167969 28.382812 6.144531 C 28.449219 6.117188 28.515625 6.097656 28.589844 6.085938 C 28.679688 6.074219 28.769531 6.066406 28.859375 6.066406 C 28.945312 6.066406 29.03125 6.058594 29.121094 6.046875 C 29.308594 6.011719 29.507812 5.980469 29.714844 5.953125 C 29.921875 5.929688 30.117188 5.914062 30.308594 5.914062 C 30.484375 5.914062 30.660156 5.9375 30.832031 5.980469 C 31.011719 6.023438 31.167969 6.046875 31.304688 6.046875 C 31.503906 6.046875 31.695312 6.058594 31.878906 6.085938 C 32.0625 6.109375 32.253906 6.125 32.453125 6.125 C 32.480469 6.125 32.519531 6.132812 32.578125 6.152344 C 32.632812 6.167969 32.699219 6.179688 32.773438 6.179688 L 34.605469 6.179688 C 34.703125 6.203125 34.777344 6.210938 34.820312 6.199219 C 34.863281 6.183594 34.90625 6.179688 34.941406 6.179688 C 35.042969 6.179688 35.136719 6.183594 35.226562 6.199219 C 35.3125 6.210938 35.40625 6.214844 35.507812 6.214844 C 35.59375 6.214844 35.664062 6.210938 35.714844 6.199219 C 35.816406 6.210938 35.910156 6.238281 35.996094 6.28125 C 36.085938 6.324219 36.183594 6.347656 36.296875 6.347656 C 36.347656 6.386719 36.386719 6.433594 36.414062 6.492188 C 36.4375 6.546875 36.480469 6.589844 36.542969 6.613281 Z M 45.246094 17.828125 C 45.121094 17.839844 45.046875 17.835938 45.023438 17.808594 C 44.972656 17.835938 44.921875 17.859375 44.878906 17.886719 C 44.835938 17.910156 44.789062 17.941406 44.742188 17.980469 C 44.5625 18.042969 44.390625 18.125 44.21875 18.226562 C 44.050781 18.324219 43.878906 18.417969 43.703125 18.507812 C 43.601562 18.554688 43.503906 18.597656 43.410156 18.632812 C 43.316406 18.660156 43.21875 18.703125 43.121094 18.75 C 42.96875 18.828125 42.816406 18.90625 42.664062 18.984375 C 42.515625 19.070312 42.359375 19.140625 42.195312 19.207031 C 42.105469 19.230469 42.023438 19.253906 41.9375 19.28125 C 41.859375 19.304688 41.773438 19.332031 41.683594 19.355469 C 41.585938 19.394531 41.496094 19.433594 41.414062 19.476562 C 41.332031 19.519531 41.246094 19.5625 41.160156 19.601562 C 41.09375 19.625 41.03125 19.648438 40.964844 19.664062 C 40.894531 19.683594 40.820312 19.710938 40.742188 19.75 C 40.679688 19.777344 40.628906 19.808594 40.585938 19.847656 C 40.542969 19.882812 40.488281 19.914062 40.421875 19.941406 C 40.324219 19.976562 40.21875 20.015625 40.113281 20.050781 C 40.007812 20.089844 39.902344 20.132812 39.800781 20.183594 C 39.699219 20.234375 39.628906 20.28125 39.585938 20.324219 C 39.542969 20.371094 39.457031 20.410156 39.332031 20.449219 C 39.203125 20.523438 39.136719 20.566406 39.121094 20.574219 C 39.113281 20.578125 39.09375 20.582031 39.066406 20.582031 C 39.03125 20.605469 38.996094 20.628906 38.964844 20.644531 C 38.933594 20.664062 38.898438 20.6875 38.859375 20.710938 C 38.785156 20.710938 38.710938 20.71875 38.632812 20.730469 C 38.558594 20.742188 38.484375 20.75 38.410156 20.75 C 38.320312 20.699219 38.261719 20.648438 38.226562 20.597656 C 38.195312 20.546875 38.179688 20.480469 38.179688 20.390625 C 38.132812 20.328125 38.085938 20.261719 38.042969 20.183594 C 38 20.109375 37.949219 20.039062 37.898438 19.976562 C 37.8125 20.027344 37.757812 20.023438 37.742188 19.964844 C 37.71875 19.910156 37.703125 19.847656 37.691406 19.777344 C 37.679688 19.710938 37.667969 19.640625 37.65625 19.574219 C 37.644531 19.503906 37.628906 19.457031 37.617188 19.429688 C 37.554688 19.191406 37.519531 19.015625 37.519531 18.902344 C 37.519531 18.839844 37.535156 18.800781 37.558594 18.78125 C 37.585938 18.761719 37.597656 18.734375 37.597656 18.695312 C 37.609375 18.570312 37.625 18.425781 37.636719 18.261719 C 37.648438 18.097656 37.65625 17.929688 37.65625 17.753906 C 37.65625 17.578125 37.65625 17.402344 37.65625 17.226562 C 37.65625 17.046875 37.65625 16.890625 37.65625 16.753906 C 37.65625 16.1875 37.648438 15.636719 37.636719 15.101562 C 37.625 14.570312 37.617188 14.035156 37.617188 13.492188 C 37.617188 13.242188 37.625 12.988281 37.636719 12.742188 C 37.648438 12.488281 37.65625 12.234375 37.65625 11.984375 C 37.65625 11.367188 37.664062 10.761719 37.683594 10.15625 C 37.699219 9.554688 37.710938 8.941406 37.710938 8.328125 C 37.710938 8.074219 37.695312 7.820312 37.671875 7.5625 C 37.648438 7.304688 37.628906 7.046875 37.617188 6.785156 C 37.605469 6.644531 37.609375 6.535156 37.636719 6.453125 C 37.660156 6.371094 37.667969 6.289062 37.65625 6.199219 C 37.691406 6.183594 37.761719 6.179688 37.859375 6.179688 C 37.960938 6.179688 38.066406 6.175781 38.171875 6.171875 C 38.277344 6.164062 38.378906 6.160156 38.472656 6.152344 C 38.570312 6.144531 38.628906 6.136719 38.652344 6.125 C 38.742188 6.1875 38.832031 6.214844 38.917969 6.214844 C 39.003906 6.214844 39.085938 6.179688 39.160156 6.105469 C 39.226562 6.128906 39.261719 6.148438 39.265625 6.164062 C 39.269531 6.171875 39.304688 6.179688 39.371094 6.179688 C 39.484375 6.167969 39.570312 6.160156 39.632812 6.152344 C 39.695312 6.144531 39.753906 6.144531 39.800781 6.144531 C 39.941406 6.242188 40.023438 6.367188 40.054688 6.511719 C 40.085938 6.652344 40.109375 6.804688 40.121094 6.960938 C 40.132812 7.117188 40.144531 7.277344 40.152344 7.433594 C 40.15625 7.589844 40.160156 7.71875 40.160156 7.820312 C 40.160156 7.894531 40.167969 7.972656 40.179688 8.054688 C 40.191406 8.136719 40.199219 8.222656 40.199219 8.308594 C 40.199219 8.375 40.195312 8.4375 40.1875 8.496094 C 40.183594 8.558594 40.179688 8.621094 40.179688 8.6875 C 40.179688 9.050781 40.183594 9.421875 40.1875 9.800781 C 40.195312 10.175781 40.199219 10.546875 40.199219 10.910156 C 40.199219 11.5625 40.1875 12.21875 40.167969 12.878906 C 40.148438 13.539062 40.140625 14.199219 40.140625 14.851562 C 40.140625 14.988281 40.148438 15.125 40.160156 15.265625 C 40.171875 15.402344 40.179688 15.542969 40.179688 15.679688 C 40.179688 15.753906 40.175781 15.832031 40.167969 15.90625 C 40.164062 15.980469 40.160156 16.054688 40.160156 16.132812 C 40.160156 16.597656 40.179688 17.0625 40.21875 17.527344 C 40.265625 17.515625 40.375 17.480469 40.539062 17.421875 C 40.699219 17.367188 40.867188 17.304688 41.042969 17.234375 C 41.222656 17.164062 41.386719 17.097656 41.535156 17.027344 C 41.6875 16.960938 41.78125 16.90625 41.820312 16.867188 C 41.867188 16.867188 41.9375 16.847656 42.023438 16.808594 C 42.113281 16.773438 42.210938 16.726562 42.308594 16.671875 C 42.410156 16.613281 42.507812 16.558594 42.597656 16.507812 C 42.695312 16.457031 42.761719 16.414062 42.800781 16.375 C 42.785156 16.125 42.78125 15.871094 42.78125 15.613281 C 42.78125 15.355469 42.78125 15.101562 42.78125 14.851562 C 42.78125 14.160156 42.789062 13.46875 42.808594 12.773438 C 42.824219 12.085938 42.835938 11.382812 42.835938 10.667969 C 42.835938 10.226562 42.828125 9.789062 42.816406 9.347656 C 42.804688 8.90625 42.800781 8.46875 42.800781 8.027344 C 42.800781 7.886719 42.800781 7.746094 42.808594 7.601562 C 42.8125 7.457031 42.816406 7.316406 42.816406 7.179688 C 42.816406 6.964844 42.8125 6.753906 42.808594 6.546875 C 42.800781 6.339844 42.8125 6.128906 42.835938 5.914062 C 42.960938 5.855469 43.03125 5.824219 43.042969 5.824219 C 43.117188 5.824219 43.171875 5.824219 43.203125 5.824219 C 43.234375 5.824219 43.265625 5.835938 43.289062 5.859375 C 43.324219 5.871094 43.359375 5.875 43.390625 5.871094 C 43.421875 5.863281 43.457031 5.859375 43.496094 5.859375 C 43.558594 5.859375 43.621094 5.871094 43.683594 5.894531 C 43.746094 5.921875 43.808594 5.933594 43.871094 5.933594 C 43.972656 5.921875 44.027344 5.933594 44.03125 5.972656 C 44.039062 6.007812 44.058594 6.027344 44.097656 6.027344 C 44.199219 5.992188 44.269531 5.992188 44.304688 6.027344 C 44.34375 6.054688 44.414062 6.089844 44.511719 6.132812 C 44.613281 6.175781 44.71875 6.222656 44.832031 6.273438 C 44.945312 6.324219 45.046875 6.371094 45.132812 6.417969 C 45.222656 6.460938 45.265625 6.5 45.265625 6.535156 C 45.304688 6.738281 45.316406 6.953125 45.304688 7.179688 C 45.292969 7.40625 45.285156 7.617188 45.285156 7.820312 C 45.285156 7.996094 45.292969 8.171875 45.304688 8.347656 C 45.316406 8.523438 45.324219 8.699219 45.324219 8.875 C 45.324219 8.976562 45.324219 9.078125 45.324219 9.175781 C 45.324219 9.277344 45.328125 9.371094 45.34375 9.460938 C 45.355469 9.523438 45.363281 9.578125 45.363281 9.621094 C 45.363281 9.664062 45.363281 9.710938 45.363281 9.761719 C 45.363281 9.824219 45.375 9.90625 45.398438 10.007812 C 45.386719 10.070312 45.382812 10.132812 45.382812 10.203125 C 45.382812 10.273438 45.382812 10.339844 45.382812 10.402344 C 45.382812 10.578125 45.386719 10.761719 45.398438 10.949219 C 45.410156 11.136719 45.414062 11.324219 45.414062 11.511719 C 45.414062 11.640625 45.40625 11.757812 45.390625 11.871094 C 45.371094 11.984375 45.363281 12.097656 45.363281 12.210938 L 45.382812 12.570312 C 45.382812 12.695312 45.386719 12.820312 45.398438 12.945312 C 45.410156 13.070312 45.414062 13.203125 45.414062 13.34375 C 45.414062 13.402344 45.414062 13.46875 45.410156 13.53125 C 45.402344 13.59375 45.390625 13.65625 45.382812 13.722656 C 45.367188 13.78125 45.363281 13.851562 45.363281 13.925781 C 45.363281 14.003906 45.363281 14.070312 45.363281 14.132812 C 45.363281 14.308594 45.367188 14.484375 45.382812 14.664062 C 45.390625 14.835938 45.398438 15.011719 45.398438 15.1875 C 45.398438 15.300781 45.394531 15.410156 45.390625 15.519531 C 45.382812 15.625 45.382812 15.734375 45.382812 15.847656 C 45.382812 16.074219 45.390625 16.308594 45.410156 16.546875 C 45.425781 16.785156 45.433594 17.019531 45.433594 17.246094 C 45.433594 17.34375 45.421875 17.453125 45.398438 17.566406 C 45.375 17.679688 45.324219 17.765625 45.246094 17.828125 Z M 58.507812 6.066406 C 58.597656 6.230469 58.644531 6.421875 58.644531 6.632812 C 58.644531 6.820312 58.605469 7.023438 58.527344 7.234375 C 58.453125 7.449219 58.332031 7.613281 58.167969 7.726562 C 58.058594 7.976562 57.949219 8.183594 57.839844 8.339844 C 57.734375 8.496094 57.632812 8.648438 57.527344 8.800781 C 57.492188 8.886719 57.457031 8.972656 57.417969 9.054688 C 57.378906 9.136719 57.328125 9.222656 57.265625 9.308594 C 57.226562 9.371094 57.148438 9.496094 57.023438 9.6875 C 56.898438 9.875 56.769531 10.070312 56.636719 10.277344 C 56.503906 10.484375 56.386719 10.683594 56.285156 10.871094 C 56.1875 11.0625 56.136719 11.183594 56.136719 11.230469 C 56.136719 11.28125 56.195312 11.34375 56.3125 11.421875 C 56.433594 11.496094 56.515625 11.550781 56.550781 11.589844 C 56.613281 11.652344 56.671875 11.714844 56.730469 11.777344 C 56.785156 11.839844 56.84375 11.902344 56.90625 11.96875 C 57.046875 12.078125 57.179688 12.191406 57.3125 12.304688 C 57.445312 12.417969 57.582031 12.542969 57.71875 12.683594 C 57.984375 12.921875 58.257812 13.148438 58.546875 13.363281 C 58.835938 13.574219 59.09375 13.828125 59.320312 14.113281 C 59.53125 14.179688 59.671875 14.328125 59.734375 14.566406 C 59.796875 14.804688 59.816406 15.03125 59.789062 15.246094 C 59.816406 15.285156 59.835938 15.320312 59.855469 15.359375 C 59.875 15.394531 59.898438 15.441406 59.925781 15.492188 C 59.925781 15.691406 59.898438 15.839844 59.839844 15.933594 C 59.785156 16.027344 59.722656 16.144531 59.660156 16.285156 C 59.597656 16.40625 59.554688 16.53125 59.535156 16.660156 C 59.515625 16.785156 59.476562 16.898438 59.414062 17 C 59.390625 17.035156 59.355469 17.070312 59.3125 17.09375 C 59.269531 17.117188 59.234375 17.15625 59.207031 17.207031 C 59.15625 17.292969 59.113281 17.398438 59.082031 17.515625 C 59.054688 17.636719 59.011719 17.746094 58.964844 17.847656 C 58.925781 17.949219 58.878906 18.046875 58.820312 18.148438 C 58.765625 18.25 58.71875 18.347656 58.679688 18.449219 C 58.65625 18.515625 58.632812 18.589844 58.613281 18.675781 C 58.59375 18.765625 58.535156 18.828125 58.433594 18.867188 C 58.371094 19.09375 58.285156 19.3125 58.179688 19.527344 C 58.074219 19.738281 57.988281 19.957031 57.925781 20.183594 C 57.8125 20.222656 57.671875 20.292969 57.5 20.402344 C 57.332031 20.507812 57.195312 20.5625 57.097656 20.5625 C 57.058594 20.5625 57.027344 20.542969 57.003906 20.503906 C 56.976562 20.46875 56.941406 20.4375 56.886719 20.410156 C 56.863281 20.398438 56.832031 20.398438 56.789062 20.410156 C 56.742188 20.421875 56.707031 20.429688 56.683594 20.429688 C 56.621094 20.429688 56.570312 20.402344 56.539062 20.351562 C 56.511719 20.304688 56.46875 20.265625 56.417969 20.242188 C 56.382812 20.253906 56.34375 20.265625 56.304688 20.277344 C 56.265625 20.292969 56.230469 20.296875 56.195312 20.296875 C 56.105469 20.296875 56.054688 20.277344 56.042969 20.234375 C 56.03125 20.1875 55.992188 20.148438 55.925781 20.109375 C 55.777344 20.035156 55.691406 19.964844 55.664062 19.902344 C 55.640625 19.839844 55.601562 19.796875 55.554688 19.769531 C 55.640625 19.441406 55.761719 19.132812 55.910156 18.835938 C 56.0625 18.542969 56.203125 18.242188 56.34375 17.941406 C 56.378906 17.839844 56.425781 17.746094 56.484375 17.65625 C 56.539062 17.570312 56.59375 17.476562 56.644531 17.375 C 56.683594 17.289062 56.738281 17.175781 56.816406 17.035156 C 56.890625 16.898438 56.957031 16.753906 57.023438 16.605469 C 57.085938 16.453125 57.140625 16.3125 57.191406 16.179688 C 57.242188 16.046875 57.265625 15.9375 57.265625 15.847656 C 57.265625 15.671875 57.214844 15.542969 57.117188 15.453125 C 56.75 15.152344 56.410156 14.84375 56.089844 14.53125 C 55.769531 14.214844 55.433594 13.894531 55.082031 13.570312 C 54.855469 13.367188 54.609375 13.160156 54.34375 12.945312 C 54.296875 12.910156 54.257812 12.851562 54.234375 12.773438 C 54.207031 12.699219 54.171875 12.632812 54.121094 12.570312 C 54.09375 12.519531 54.058594 12.480469 54.003906 12.453125 C 53.957031 12.429688 53.917969 12.394531 53.894531 12.34375 C 53.855469 12.292969 53.832031 12.234375 53.820312 12.164062 C 53.808594 12.09375 53.769531 12.042969 53.703125 12.003906 C 53.644531 11.941406 53.566406 11.902344 53.480469 11.890625 C 53.390625 11.878906 53.316406 11.839844 53.253906 11.777344 C 53.292969 11.742188 53.308594 11.699219 53.300781 11.65625 C 53.292969 11.613281 53.292969 11.570312 53.292969 11.53125 C 53.292969 11.445312 53.328125 11.382812 53.402344 11.34375 C 53.476562 11.308594 53.515625 11.238281 53.515625 11.136719 C 53.566406 11.039062 53.605469 10.976562 53.632812 10.949219 C 53.769531 10.609375 53.925781 10.28125 54.101562 9.96875 C 54.277344 9.65625 54.457031 9.339844 54.644531 9.027344 C 54.710938 8.925781 54.769531 8.828125 54.828125 8.734375 C 54.882812 8.636719 54.941406 8.539062 55.003906 8.441406 C 55.042969 8.351562 55.078125 8.273438 55.109375 8.203125 C 55.140625 8.136719 55.1875 8.070312 55.25 8.007812 C 55.425781 7.808594 55.574219 7.621094 55.691406 7.445312 C 55.8125 7.265625 55.902344 7.054688 55.964844 6.804688 C 55.980469 6.738281 56.003906 6.648438 56.042969 6.535156 C 56.078125 6.421875 56.125 6.3125 56.183594 6.199219 C 56.238281 6.085938 56.300781 5.984375 56.363281 5.894531 C 56.425781 5.808594 56.492188 5.765625 56.566406 5.765625 C 56.632812 5.765625 56.722656 5.789062 56.839844 5.84375 C 56.960938 5.890625 57.066406 5.929688 57.152344 5.953125 C 57.230469 5.980469 57.308594 6 57.390625 6.019531 C 57.472656 6.039062 57.550781 6.046875 57.625 6.046875 C 57.675781 6.046875 57.722656 6.03125 57.777344 6 C 57.824219 5.96875 57.882812 5.953125 57.945312 5.953125 C 58.046875 5.953125 58.140625 5.96875 58.226562 6 C 58.316406 6.03125 58.410156 6.054688 58.507812 6.066406 Z M 69.117188 6.085938 L 69.304688 6.144531 C 69.457031 6.105469 69.5625 6.089844 69.625 6.097656 C 69.6875 6.101562 69.75 6.109375 69.816406 6.125 C 69.890625 6.171875 69.953125 6.234375 70.003906 6.3125 C 70.003906 6.574219 70 6.835938 69.992188 7.09375 C 69.988281 7.351562 69.984375 7.613281 69.984375 7.875 C 69.984375 8.351562 69.992188 8.828125 70.003906 9.308594 C 70.015625 9.789062 70.015625 10.265625 70.003906 10.742188 C 70.027344 10.855469 70.03125 10.917969 70.019531 10.929688 C 70.007812 10.941406 70.003906 10.960938 70.003906 10.988281 C 70.003906 11.464844 70.015625 11.933594 70.039062 12.402344 C 70.0625 12.863281 70.078125 13.335938 70.078125 13.8125 L 70.078125 16.320312 C 70.078125 16.859375 70.09375 17.394531 70.125 17.921875 C 70.15625 18.449219 70.171875 18.980469 70.171875 19.507812 C 70.171875 19.554688 70.140625 19.625 70.078125 19.710938 C 70.050781 19.8125 70.015625 19.894531 69.964844 19.957031 C 69.851562 19.972656 69.746094 19.953125 69.644531 19.902344 C 69.59375 19.902344 69.558594 19.917969 69.539062 19.945312 C 69.523438 19.980469 69.496094 20.007812 69.457031 20.03125 C 69.355469 20.03125 69.273438 20.058594 69.214844 20.109375 C 69.148438 20.160156 69.074219 20.183594 68.984375 20.183594 C 68.910156 20.183594 68.839844 20.171875 68.769531 20.15625 C 68.699219 20.136719 68.621094 20.128906 68.535156 20.128906 C 68.507812 20.128906 68.46875 20.152344 68.417969 20.195312 C 68.367188 20.238281 68.332031 20.265625 68.304688 20.277344 C 68.246094 20.277344 68.1875 20.289062 68.136719 20.304688 C 68.085938 20.324219 68.03125 20.332031 67.964844 20.332031 C 67.90625 20.285156 67.875 20.210938 67.882812 20.109375 C 67.890625 20.007812 67.847656 19.945312 67.761719 19.921875 C 67.761719 19.859375 67.765625 19.789062 67.769531 19.710938 C 67.773438 19.636719 67.777344 19.5625 67.777344 19.488281 C 67.777344 18.996094 67.765625 18.503906 67.742188 18.003906 C 67.71875 17.511719 67.699219 17.019531 67.683594 16.527344 C 67.671875 16.3125 67.667969 16.105469 67.675781 15.898438 C 67.683594 15.691406 67.683594 15.476562 67.683594 15.265625 C 67.683594 15.152344 67.683594 15.039062 67.683594 14.925781 C 67.683594 14.8125 67.671875 14.707031 67.644531 14.605469 C 67.570312 14.59375 67.507812 14.601562 67.449219 14.632812 C 67.394531 14.664062 67.332031 14.683594 67.273438 14.683594 C 67.007812 14.769531 66.832031 14.855469 66.742188 14.945312 C 66.667969 14.945312 66.605469 14.957031 66.554688 14.984375 C 66.503906 15.007812 66.449219 15.035156 66.382812 15.054688 C 66.285156 15.082031 66.1875 15.105469 66.089844 15.121094 C 66 15.144531 65.902344 15.171875 65.800781 15.207031 C 65.738281 15.234375 65.675781 15.257812 65.613281 15.285156 C 65.550781 15.308594 65.488281 15.335938 65.421875 15.359375 C 65.285156 15.410156 65.148438 15.457031 65.011719 15.5 C 64.871094 15.542969 64.734375 15.589844 64.59375 15.644531 C 64.457031 15.667969 64.339844 15.703125 64.234375 15.753906 C 64.136719 15.804688 64.035156 15.855469 63.933594 15.90625 C 63.847656 16.496094 63.800781 17.058594 63.796875 17.59375 C 63.789062 18.128906 63.804688 18.660156 63.839844 19.1875 C 63.816406 19.261719 63.804688 19.347656 63.804688 19.441406 C 63.804688 19.535156 63.785156 19.613281 63.75 19.675781 C 63.609375 19.714844 63.519531 19.714844 63.476562 19.683594 C 63.429688 19.652344 63.382812 19.625 63.332031 19.601562 C 63.285156 19.613281 63.242188 19.636719 63.207031 19.675781 C 63.179688 19.714844 63.148438 19.742188 63.125 19.769531 C 63.023438 19.769531 62.945312 19.792969 62.886719 19.835938 C 62.832031 19.878906 62.777344 19.914062 62.730469 19.941406 C 62.691406 19.953125 62.65625 19.953125 62.617188 19.941406 C 62.578125 19.925781 62.535156 19.933594 62.484375 19.957031 C 62.359375 19.957031 62.300781 19.945312 62.304688 19.914062 C 62.3125 19.878906 62.296875 19.863281 62.257812 19.863281 C 62.207031 19.863281 62.171875 19.882812 62.15625 19.929688 C 62.136719 19.972656 62.101562 20.007812 62.050781 20.03125 C 62.003906 20.058594 61.945312 20.074219 61.882812 20.082031 C 61.820312 20.085938 61.757812 20.101562 61.691406 20.128906 C 61.628906 20.0625 61.597656 19.996094 61.597656 19.921875 C 61.597656 19.84375 61.566406 19.777344 61.503906 19.710938 C 61.480469 19.535156 61.464844 19.363281 61.457031 19.195312 C 61.453125 19.023438 61.429688 18.851562 61.390625 18.675781 C 61.417969 18.324219 61.425781 18.042969 61.417969 17.828125 C 61.414062 17.613281 61.410156 17.394531 61.410156 17.167969 C 61.410156 16.96875 61.402344 16.765625 61.390625 16.566406 C 61.378906 16.363281 61.367188 16.164062 61.351562 15.964844 C 61.328125 15.597656 61.308594 15.226562 61.285156 14.851562 C 61.269531 14.472656 61.261719 14.097656 61.261719 13.722656 C 61.261719 13.40625 61.277344 13.097656 61.304688 12.792969 C 61.335938 12.492188 61.351562 12.1875 61.351562 11.871094 C 61.351562 11.65625 61.355469 11.449219 61.363281 11.242188 C 61.371094 11.035156 61.371094 10.824219 61.371094 10.609375 C 61.371094 10.433594 61.371094 10.261719 61.363281 10.09375 C 61.355469 9.921875 61.351562 9.753906 61.351562 9.589844 C 61.351562 9.402344 61.367188 9.21875 61.390625 9.035156 C 61.417969 8.851562 61.429688 8.671875 61.429688 8.496094 C 61.429688 8.285156 61.417969 8.074219 61.390625 7.863281 C 61.367188 7.660156 61.351562 7.449219 61.351562 7.234375 C 61.351562 7.175781 61.359375 7.113281 61.371094 7.058594 C 61.386719 7 61.390625 6.941406 61.390625 6.875 C 61.378906 6.738281 61.386719 6.652344 61.410156 6.621094 C 61.4375 6.589844 61.460938 6.550781 61.488281 6.5 C 61.550781 6.488281 61.617188 6.46875 61.691406 6.445312 C 61.769531 6.417969 61.839844 6.417969 61.902344 6.445312 C 61.976562 6.371094 62.078125 6.332031 62.214844 6.332031 C 62.34375 6.332031 62.441406 6.289062 62.503906 6.199219 C 62.589844 6.210938 62.652344 6.214844 62.683594 6.207031 C 62.714844 6.203125 62.742188 6.199219 62.769531 6.199219 C 62.882812 6.222656 62.941406 6.21875 62.945312 6.191406 C 62.953125 6.160156 62.972656 6.144531 63.011719 6.144531 C 63.078125 6.144531 63.175781 6.144531 63.304688 6.152344 C 63.4375 6.160156 63.527344 6.1875 63.578125 6.234375 C 63.703125 6.902344 63.769531 7.582031 63.785156 8.269531 C 63.796875 8.960938 63.804688 9.648438 63.804688 10.328125 C 63.804688 10.503906 63.808594 10.679688 63.820312 10.863281 C 63.835938 11.046875 63.828125 11.226562 63.804688 11.402344 C 63.804688 11.476562 63.796875 11.546875 63.785156 11.617188 C 63.769531 11.6875 63.765625 11.757812 63.765625 11.832031 C 63.765625 12.046875 63.753906 12.269531 63.730469 12.503906 C 63.703125 12.738281 63.691406 12.960938 63.691406 13.171875 C 63.839844 13.261719 63.96875 13.289062 64.078125 13.257812 C 64.183594 13.226562 64.285156 13.191406 64.390625 13.152344 C 64.511719 13.113281 64.628906 13.074219 64.738281 13.03125 C 64.84375 12.984375 64.953125 12.945312 65.066406 12.910156 C 65.164062 12.859375 65.277344 12.816406 65.398438 12.785156 C 65.515625 12.753906 65.625 12.726562 65.722656 12.703125 C 66.050781 12.589844 66.371094 12.449219 66.683594 12.289062 C 67 12.125 67.320312 11.992188 67.644531 11.890625 C 67.621094 11.199219 67.609375 10.511719 67.609375 9.824219 C 67.609375 9.140625 67.609375 8.460938 67.609375 7.785156 C 67.609375 7.59375 67.609375 7.398438 67.609375 7.195312 C 67.609375 6.996094 67.621094 6.800781 67.644531 6.613281 C 67.660156 6.5625 67.675781 6.523438 67.691406 6.492188 C 67.714844 6.460938 67.722656 6.414062 67.722656 6.347656 C 67.757812 6.285156 67.804688 6.242188 67.855469 6.214844 C 67.90625 6.191406 67.945312 6.152344 67.964844 6.105469 C 67.992188 6.128906 68.019531 6.152344 68.050781 6.171875 C 68.082031 6.1875 68.117188 6.203125 68.15625 6.214844 C 68.257812 6.191406 68.316406 6.171875 68.332031 6.164062 C 68.355469 6.148438 68.375 6.136719 68.402344 6.125 C 68.464844 6.097656 68.546875 6.085938 68.644531 6.085938 C 68.746094 6.085938 68.828125 6.085938 68.894531 6.085938 Z M 81.535156 12.609375 C 81.507812 12.65625 81.484375 12.703125 81.457031 12.746094 C 81.429688 12.792969 81.410156 12.839844 81.398438 12.890625 C 81.449219 12.941406 81.496094 12.992188 81.542969 13.050781 C 81.585938 13.105469 81.605469 13.167969 81.605469 13.230469 C 81.605469 13.28125 81.597656 13.324219 81.582031 13.371094 C 81.5625 13.414062 81.558594 13.453125 81.570312 13.492188 C 81.519531 13.582031 81.46875 13.660156 81.410156 13.734375 C 81.355469 13.8125 81.3125 13.894531 81.285156 13.984375 C 81.238281 14.03125 81.195312 14.082031 81.164062 14.132812 C 81.132812 14.183594 81.105469 14.234375 81.078125 14.285156 C 81.015625 14.308594 80.976562 14.351562 80.957031 14.40625 C 80.9375 14.464844 80.902344 14.511719 80.855469 14.546875 C 80.84375 14.597656 80.777344 14.71875 80.664062 14.90625 C 80.550781 15.09375 80.425781 15.292969 80.289062 15.507812 C 80.152344 15.722656 80.019531 15.929688 79.894531 16.132812 C 79.769531 16.335938 79.679688 16.464844 79.628906 16.527344 C 79.605469 16.589844 79.578125 16.640625 79.546875 16.675781 C 79.511719 16.714844 79.476562 16.761719 79.441406 16.808594 C 79.417969 16.847656 79.398438 16.890625 79.382812 16.933594 C 79.371094 16.976562 79.351562 17.011719 79.328125 17.035156 C 79.304688 17.089844 79.273438 17.132812 79.242188 17.167969 C 79.210938 17.207031 79.183594 17.257812 79.15625 17.320312 C 79.035156 17.484375 78.910156 17.679688 78.78125 17.90625 C 78.65625 18.128906 78.535156 18.328125 78.421875 18.507812 C 78.363281 18.609375 78.304688 18.707031 78.246094 18.808594 C 78.191406 18.910156 78.128906 19.007812 78.066406 19.109375 C 78.003906 19.210938 77.941406 19.304688 77.875 19.390625 C 77.8125 19.480469 77.753906 19.578125 77.691406 19.675781 C 77.585938 19.75 77.5 19.839844 77.425781 19.945312 C 77.351562 20.054688 77.261719 20.148438 77.160156 20.222656 C 76.996094 20.222656 76.898438 20.148438 76.859375 19.996094 C 76.695312 19.957031 76.613281 19.957031 76.613281 19.996094 C 76.613281 20.035156 76.613281 20.0625 76.613281 20.089844 C 76.566406 20.117188 76.53125 20.152344 76.511719 20.203125 C 76.492188 20.253906 76.457031 20.292969 76.410156 20.316406 C 76.304688 20.292969 76.222656 20.25 76.15625 20.195312 C 76.085938 20.136719 75.988281 20.117188 75.863281 20.128906 C 75.808594 20.050781 75.753906 19.984375 75.691406 19.929688 C 75.628906 19.875 75.574219 19.816406 75.523438 19.75 C 75.496094 19.675781 75.460938 19.613281 75.417969 19.5625 C 75.375 19.511719 75.332031 19.460938 75.292969 19.410156 C 75.257812 19.347656 75.222656 19.292969 75.183594 19.242188 C 75.144531 19.191406 75.105469 19.140625 75.070312 19.089844 C 74.984375 18.976562 74.898438 18.867188 74.816406 18.761719 C 74.734375 18.652344 74.660156 18.542969 74.601562 18.429688 C 74.5 18.28125 74.402344 18.128906 74.304688 17.972656 C 74.210938 17.8125 74.113281 17.660156 74.011719 17.507812 C 73.964844 17.433594 73.914062 17.355469 73.863281 17.28125 C 73.8125 17.207031 73.769531 17.128906 73.730469 17.054688 C 73.707031 16.992188 73.671875 16.914062 73.628906 16.828125 C 73.582031 16.742188 73.53125 16.683594 73.46875 16.660156 C 73.445312 16.558594 73.398438 16.484375 73.339844 16.433594 C 73.273438 16.382812 73.210938 16.320312 73.148438 16.246094 C 73.0625 16.144531 72.980469 16.035156 72.902344 15.914062 C 72.828125 15.796875 72.753906 15.671875 72.679688 15.546875 C 72.425781 15.195312 72.191406 14.851562 71.972656 14.511719 C 71.75 14.171875 71.535156 13.820312 71.320312 13.453125 C 71.382812 13.253906 71.417969 13.101562 71.417969 13.003906 C 71.417969 12.902344 71.445312 12.820312 71.507812 12.757812 C 71.507812 12.707031 71.523438 12.632812 71.546875 12.53125 C 71.710938 12.257812 71.867188 12.003906 72.019531 11.777344 C 72.15625 11.566406 72.253906 11.390625 72.3125 11.25 C 72.367188 11.113281 72.425781 10.96875 72.488281 10.816406 C 72.550781 10.78125 72.601562 10.730469 72.640625 10.675781 C 72.679688 10.617188 72.726562 10.566406 72.789062 10.515625 C 72.816406 10.378906 72.871094 10.261719 72.960938 10.164062 C 73.046875 10.074219 73.105469 9.957031 73.128906 9.816406 C 73.242188 9.730469 73.304688 9.628906 73.320312 9.515625 C 73.480469 9.402344 73.582031 9.253906 73.621094 9.066406 C 73.71875 8.960938 73.804688 8.847656 73.875 8.726562 C 73.945312 8.601562 74.007812 8.46875 74.070312 8.328125 C 74.222656 8.203125 74.34375 8.039062 74.429688 7.839844 C 74.503906 7.789062 74.5625 7.71875 74.601562 7.628906 C 74.636719 7.542969 74.6875 7.46875 74.75 7.40625 C 74.851562 7.242188 74.929688 7.105469 74.984375 7 C 75.042969 6.890625 75.101562 6.78125 75.164062 6.667969 C 75.25 6.667969 75.308594 6.636719 75.332031 6.574219 C 75.359375 6.515625 75.410156 6.488281 75.484375 6.5 C 75.484375 6.386719 75.515625 6.289062 75.578125 6.199219 C 75.601562 6.183594 75.640625 6.167969 75.691406 6.152344 C 75.742188 6.132812 75.769531 6.109375 75.769531 6.085938 C 75.742188 5.933594 75.75 5.847656 75.785156 5.824219 C 75.824219 5.796875 75.855469 5.769531 75.878906 5.746094 C 76.019531 5.769531 76.113281 5.789062 76.164062 5.804688 C 76.214844 5.816406 76.296875 5.859375 76.410156 5.933594 C 76.53125 5.933594 76.621094 5.960938 76.671875 6.011719 C 76.722656 6.0625 76.777344 6.097656 76.839844 6.125 C 76.890625 6.171875 76.933594 6.222656 76.964844 6.273438 C 76.996094 6.324219 77.042969 6.359375 77.105469 6.386719 C 77.203125 6.527344 77.3125 6.675781 77.425781 6.839844 C 77.539062 7.003906 77.644531 7.15625 77.746094 7.292969 C 77.882812 7.480469 78.023438 7.660156 78.167969 7.832031 C 78.3125 8 78.449219 8.183594 78.574219 8.386719 C 78.613281 8.449219 78.683594 8.558594 78.78125 8.714844 C 78.882812 8.871094 78.996094 9.039062 79.121094 9.214844 C 79.246094 9.390625 79.359375 9.550781 79.460938 9.695312 C 79.5625 9.839844 79.628906 9.921875 79.667969 9.949219 C 79.703125 10.011719 79.789062 10.128906 79.914062 10.308594 C 80.039062 10.484375 80.175781 10.667969 80.320312 10.863281 C 80.460938 11.058594 80.605469 11.246094 80.742188 11.421875 C 80.878906 11.59375 80.972656 11.707031 81.023438 11.761719 C 81.164062 11.949219 81.265625 12.101562 81.332031 12.21875 C 81.402344 12.339844 81.46875 12.46875 81.535156 12.609375 Z M 77.214844 16.148438 C 77.355469 15.960938 77.460938 15.792969 77.535156 15.644531 C 77.613281 15.492188 77.6875 15.339844 77.765625 15.1875 C 77.890625 15.039062 77.964844 14.929688 77.992188 14.867188 C 78.015625 14.804688 78.046875 14.742188 78.085938 14.683594 C 78.183594 14.53125 78.289062 14.378906 78.398438 14.226562 C 78.503906 14.078125 78.585938 13.914062 78.652344 13.734375 C 78.726562 13.6875 78.78125 13.625 78.820312 13.550781 C 78.855469 13.472656 78.914062 13.402344 78.988281 13.34375 C 78.914062 13.078125 78.824219 12.871094 78.726562 12.730469 C 78.625 12.585938 78.523438 12.441406 78.421875 12.304688 C 78.386719 12.242188 78.347656 12.179688 78.3125 12.117188 C 78.273438 12.054688 78.234375 11.992188 78.195312 11.929688 C 78.148438 11.890625 78.105469 11.851562 78.078125 11.8125 C 78.042969 11.777344 78.007812 11.742188 77.972656 11.703125 C 77.945312 11.640625 77.90625 11.558594 77.855469 11.457031 C 77.808594 11.394531 77.757812 11.335938 77.707031 11.289062 C 77.65625 11.238281 77.613281 11.175781 77.574219 11.101562 C 77.527344 11.046875 77.464844 10.980469 77.386719 10.890625 C 77.3125 10.804688 77.234375 10.707031 77.148438 10.601562 C 77.070312 10.492188 77 10.390625 76.933594 10.296875 C 76.871094 10.203125 76.824219 10.125 76.785156 10.0625 C 76.757812 10 76.734375 9.945312 76.71875 9.902344 C 76.699219 9.859375 76.679688 9.8125 76.652344 9.761719 C 76.589844 9.671875 76.527344 9.59375 76.464844 9.523438 C 76.402344 9.457031 76.339844 9.375 76.273438 9.289062 C 76.238281 9.316406 76.203125 9.332031 76.171875 9.335938 C 76.140625 9.34375 76.113281 9.359375 76.089844 9.386719 C 76 9.546875 75.902344 9.699219 75.796875 9.835938 C 75.6875 9.972656 75.582031 10.125 75.484375 10.289062 C 75.394531 10.441406 75.308594 10.59375 75.222656 10.753906 C 75.132812 10.910156 75.046875 11.0625 74.957031 11.210938 C 74.894531 11.300781 74.832031 11.382812 74.777344 11.464844 C 74.71875 11.546875 74.660156 11.640625 74.601562 11.742188 C 74.535156 11.828125 74.480469 11.917969 74.4375 12.015625 C 74.394531 12.105469 74.339844 12.199219 74.28125 12.289062 C 74.179688 12.414062 74.097656 12.523438 74.03125 12.625 C 73.972656 12.726562 73.90625 12.84375 73.84375 12.984375 C 73.882812 13.058594 73.941406 13.164062 74.023438 13.296875 C 74.105469 13.425781 74.191406 13.558594 74.28125 13.691406 C 74.367188 13.824219 74.445312 13.945312 74.515625 14.054688 C 74.585938 14.167969 74.625 14.246094 74.636719 14.285156 C 74.738281 14.371094 74.820312 14.46875 74.882812 14.578125 C 74.941406 14.683594 75.023438 14.785156 75.125 14.886719 C 75.175781 14.988281 75.234375 15.074219 75.292969 15.152344 C 75.359375 15.226562 75.421875 15.308594 75.484375 15.394531 C 75.546875 15.484375 75.628906 15.613281 75.730469 15.78125 C 75.832031 15.953125 75.929688 16.125 76.03125 16.304688 C 76.132812 16.476562 76.230469 16.640625 76.332031 16.792969 C 76.433594 16.941406 76.515625 17.035156 76.574219 17.074219 C 76.703125 16.9375 76.804688 16.78125 76.886719 16.613281 C 76.96875 16.441406 77.078125 16.289062 77.214844 16.148438 Z M 84.28125 6.386719 C 84.332031 6.375 84.375 6.355469 84.414062 6.332031 C 84.449219 6.308594 84.496094 6.292969 84.546875 6.292969 C 84.582031 6.308594 84.613281 6.332031 84.632812 6.367188 C 84.652344 6.40625 84.679688 6.4375 84.71875 6.464844 C 84.753906 6.4375 84.785156 6.414062 84.816406 6.386719 C 84.851562 6.359375 84.886719 6.34375 84.921875 6.332031 C 85.046875 6.367188 85.117188 6.429688 85.128906 6.519531 C 85.191406 6.542969 85.25 6.570312 85.300781 6.601562 C 85.347656 6.636719 85.40625 6.65625 85.46875 6.667969 C 85.496094 6.71875 85.527344 6.757812 85.5625 6.785156 C 85.601562 6.808594 85.644531 6.84375 85.695312 6.894531 C 85.820312 6.921875 85.988281 6.992188 86.195312 7.105469 C 86.402344 7.21875 86.566406 7.304688 86.691406 7.367188 C 86.820312 7.429688 86.945312 7.496094 87.070312 7.554688 C 87.199219 7.617188 87.316406 7.6875 87.429688 7.765625 C 87.542969 7.828125 87.65625 7.898438 87.769531 7.980469 C 87.882812 8.0625 88 8.128906 88.125 8.175781 C 88.238281 8.316406 88.382812 8.402344 88.5625 8.441406 C 88.734375 8.480469 88.894531 8.546875 89.03125 8.648438 C 89.144531 8.714844 89.25 8.777344 89.351562 8.84375 C 89.453125 8.914062 89.550781 8.980469 89.652344 9.046875 C 89.691406 9.109375 89.738281 9.15625 89.796875 9.195312 C 89.847656 9.234375 89.902344 9.28125 89.953125 9.347656 C 90.207031 9.484375 90.351562 9.59375 90.386719 9.667969 C 90.425781 9.695312 90.480469 9.730469 90.554688 9.78125 C 90.632812 9.832031 90.707031 9.886719 90.785156 9.941406 C 90.859375 10 90.925781 10.054688 90.992188 10.113281 C 91.054688 10.167969 91.089844 10.222656 91.105469 10.269531 C 91.050781 10.382812 91.027344 10.472656 91.027344 10.542969 C 91.027344 10.613281 91.003906 10.671875 90.953125 10.722656 C 91.027344 10.820312 91.066406 10.914062 91.066406 11.003906 C 91.003906 11.15625 90.898438 11.28125 90.746094 11.382812 C 90.707031 11.480469 90.648438 11.558594 90.566406 11.617188 C 90.484375 11.671875 90.429688 11.753906 90.40625 11.851562 C 90.304688 11.917969 90.246094 11.96875 90.226562 12.003906 C 90.207031 12.042969 90.183594 12.082031 90.164062 12.117188 C 89.921875 12.367188 89.699219 12.585938 89.492188 12.765625 C 89.285156 12.949219 89.09375 13.148438 88.914062 13.363281 C 88.792969 13.421875 88.683594 13.503906 88.59375 13.597656 C 88.507812 13.691406 88.425781 13.792969 88.351562 13.90625 C 88.253906 14.007812 88.152344 14.105469 88.058594 14.199219 C 87.964844 14.292969 87.871094 14.386719 87.769531 14.472656 C 87.742188 14.523438 87.703125 14.5625 87.644531 14.597656 C 87.589844 14.628906 87.546875 14.675781 87.523438 14.734375 C 87.382812 14.800781 87.269531 14.890625 87.183594 15.003906 C 87.09375 15.117188 86.988281 15.210938 86.863281 15.285156 L 86.730469 15.472656 C 86.691406 15.496094 86.640625 15.535156 86.574219 15.59375 C 86.503906 15.648438 86.433594 15.710938 86.363281 15.78125 C 86.296875 15.851562 86.234375 15.917969 86.183594 15.984375 C 86.136719 16.042969 86.105469 16.09375 86.089844 16.132812 C 86.050781 16.144531 85.992188 16.179688 85.914062 16.246094 C 85.832031 16.308594 85.75 16.375 85.667969 16.453125 C 85.585938 16.527344 85.507812 16.601562 85.441406 16.675781 C 85.375 16.753906 85.332031 16.804688 85.320312 16.828125 L 85.128906 16.960938 C 85.144531 17.300781 85.152344 17.644531 85.15625 17.988281 C 85.164062 18.335938 85.167969 18.675781 85.167969 19.015625 L 85.167969 19.65625 L 85.039062 19.828125 C 84.972656 19.828125 84.921875 19.816406 84.886719 19.789062 C 84.847656 19.761719 84.804688 19.75 84.753906 19.75 C 84.703125 19.75 84.65625 19.777344 84.613281 19.828125 C 84.570312 19.875 84.527344 19.914062 84.488281 19.941406 C 84.402344 19.953125 84.332031 19.972656 84.273438 20.003906 C 84.21875 20.035156 84.15625 20.0625 84.09375 20.089844 C 84.019531 20.050781 83.941406 20.03125 83.867188 20.03125 C 83.703125 20.070312 83.625 20.078125 83.632812 20.050781 C 83.636719 20.027344 83.609375 20.011719 83.546875 20.011719 C 83.449219 20.117188 83.386719 20.167969 83.359375 20.167969 C 83.308594 20.167969 83.261719 20.171875 83.214844 20.183594 C 83.171875 20.195312 83.125 20.203125 83.078125 20.203125 C 83.027344 20.101562 82.984375 20 82.953125 19.894531 C 82.921875 19.785156 82.863281 19.679688 82.777344 19.582031 C 82.8125 19.453125 82.804688 19.367188 82.757812 19.316406 C 82.832031 19.179688 82.863281 19.023438 82.851562 18.847656 C 82.835938 18.667969 82.832031 18.507812 82.832031 18.355469 C 82.832031 18.269531 82.835938 18.183594 82.84375 18.101562 C 82.847656 18.019531 82.851562 17.941406 82.851562 17.867188 C 82.851562 17.714844 82.835938 17.558594 82.8125 17.402344 C 82.789062 17.246094 82.777344 17.085938 82.777344 16.925781 C 82.777344 16.546875 82.789062 16.164062 82.8125 15.78125 C 82.835938 15.398438 82.851562 15.019531 82.851562 14.644531 C 82.851562 14.429688 82.839844 14.210938 82.824219 13.984375 C 82.804688 13.757812 82.796875 13.535156 82.796875 13.324219 C 82.796875 13.183594 82.800781 13.054688 82.8125 12.9375 C 82.824219 12.820312 82.835938 12.703125 82.851562 12.589844 C 82.851562 12.011719 82.859375 11.453125 82.878906 10.921875 C 82.898438 10.386719 82.90625 9.855469 82.90625 9.328125 C 82.90625 9.152344 82.902344 8.988281 82.894531 8.828125 C 82.890625 8.671875 82.886719 8.503906 82.886719 8.328125 C 82.886719 8.242188 82.894531 8.152344 82.90625 8.066406 C 82.921875 7.976562 82.925781 7.890625 82.925781 7.800781 C 82.964844 7.410156 82.980469 7.023438 82.980469 6.632812 L 82.960938 6.332031 C 83.011719 6.253906 83.089844 6.214844 83.1875 6.214844 C 83.328125 6.214844 83.433594 6.261719 83.507812 6.347656 C 83.597656 6.335938 83.683594 6.320312 83.765625 6.300781 C 83.847656 6.285156 83.925781 6.273438 84 6.273438 C 84.113281 6.273438 84.207031 6.3125 84.28125 6.386719 Z M 85.429688 9.328125 L 85.394531 9.386719 C 85.394531 9.449219 85.386719 9.492188 85.375 9.523438 C 85.363281 9.554688 85.351562 9.585938 85.339844 9.609375 C 85.339844 9.648438 85.339844 9.691406 85.347656 9.734375 C 85.355469 9.777344 85.359375 9.824219 85.359375 9.875 C 85.359375 10.164062 85.355469 10.449219 85.347656 10.734375 C 85.339844 11.015625 85.339844 11.296875 85.339844 11.570312 L 85.300781 12.570312 C 85.300781 12.632812 85.304688 12.699219 85.320312 12.773438 C 85.332031 12.851562 85.339844 12.921875 85.339844 12.984375 C 85.339844 13.046875 85.332031 13.109375 85.320312 13.171875 C 85.304688 13.234375 85.300781 13.296875 85.300781 13.363281 C 85.300781 13.523438 85.320312 13.6875 85.359375 13.851562 C 85.417969 13.828125 85.464844 13.785156 85.488281 13.730469 C 85.515625 13.671875 85.546875 13.625 85.582031 13.585938 C 85.871094 13.324219 86.140625 13.046875 86.390625 12.757812 C 86.644531 12.46875 86.902344 12.179688 87.164062 11.890625 C 87.390625 11.652344 87.585938 11.457031 87.75 11.308594 C 87.914062 11.15625 88.039062 10.972656 88.125 10.761719 C 87.910156 10.621094 87.691406 10.480469 87.464844 10.335938 C 87.242188 10.191406 87.003906 10.070312 86.75 9.96875 C 86.738281 9.941406 86.703125 9.914062 86.648438 9.875 C 86.589844 9.835938 86.53125 9.804688 86.46875 9.773438 C 86.40625 9.738281 86.34375 9.710938 86.28125 9.6875 C 86.214844 9.660156 86.171875 9.648438 86.148438 9.648438 C 86.035156 9.546875 85.917969 9.484375 85.789062 9.460938 C 85.703125 9.460938 85.625 9.445312 85.5625 9.414062 C 85.5 9.382812 85.457031 9.355469 85.429688 9.328125 Z M 85.429688 9.328125 "/>
</g>
<g clip-path="url(#clip4)" clip-rule="nonzero">
<path style=" stroke:none;fill-rule:nonzero;fill:rgb(100%,100%,100%);fill-opacity:1;" d="M 39.253906 27.734375 L 39.238281 27.335938 C 39.238281 27.296875 39.25 27.28125 39.273438 27.28125 C 39.285156 27.28125 39.300781 27.320312 39.324219 27.398438 C 39.34375 27.476562 39.355469 27.597656 39.355469 27.769531 C 39.355469 27.941406 39.355469 28.058594 39.351562 28.121094 C 39.535156 28.085938 39.699219 28.066406 39.847656 28.066406 C 40.261719 28.066406 40.582031 28.175781 40.8125 28.390625 C 41.070312 28.621094 41.199219 28.933594 41.199219 29.324219 L 41.199219 29.351562 C 41.199219 29.429688 41.167969 29.46875 41.101562 29.46875 C 41.066406 29.46875 41.023438 29.453125 40.980469 29.425781 C 40.664062 29.238281 40.378906 29.074219 40.117188 28.933594 C 39.855469 28.792969 39.585938 28.679688 39.308594 28.589844 C 39.234375 29.230469 39.109375 29.902344 38.9375 30.609375 C 38.722656 31.402344 38.5 32.046875 38.265625 32.539062 C 38.304688 32.546875 38.363281 32.546875 38.445312 32.546875 C 38.949219 32.546875 39.457031 32.417969 39.972656 32.15625 C 40.488281 31.898438 40.875 31.5625 41.136719 31.152344 L 41.199219 31.070312 C 41.203125 31.074219 41.207031 31.089844 41.207031 31.113281 C 41.207031 31.132812 41.199219 31.160156 41.1875 31.1875 C 40.917969 31.648438 40.476562 32.035156 39.859375 32.355469 C 39.277344 32.644531 38.699219 32.792969 38.136719 32.804688 C 37.835938 33.335938 37.558594 33.605469 37.300781 33.605469 C 37.257812 33.605469 37.238281 33.589844 37.238281 33.5625 C 37.238281 33.535156 37.25 33.519531 37.28125 33.515625 L 37.410156 33.488281 C 37.621094 33.414062 37.839844 33.183594 38.058594 32.804688 C 37.585938 32.789062 37.210938 32.65625 36.933594 32.410156 C 36.65625 32.160156 36.519531 31.78125 36.519531 31.273438 C 36.519531 30.765625 36.71875 30.230469 37.113281 29.664062 C 37.507812 29.101562 37.96875 28.6875 38.492188 28.417969 C 38.371094 28.40625 38.246094 28.398438 38.117188 28.398438 C 37.992188 28.398438 37.816406 28.425781 37.59375 28.476562 C 37.371094 28.53125 37.167969 28.609375 36.988281 28.714844 C 36.722656 28.871094 36.589844 29.046875 36.589844 29.242188 C 36.589844 29.261719 36.589844 29.28125 36.597656 29.296875 L 36.597656 29.351562 C 36.597656 29.410156 36.574219 29.441406 36.535156 29.441406 C 36.480469 29.441406 36.4375 29.402344 36.410156 29.332031 C 36.371094 29.246094 36.355469 29.179688 36.355469 29.121094 C 36.355469 28.851562 36.597656 28.640625 37.085938 28.496094 C 37.445312 28.390625 37.800781 28.335938 38.15625 28.335938 C 38.253906 28.335938 38.398438 28.347656 38.589844 28.371094 C 38.847656 28.261719 39.066406 28.183594 39.246094 28.144531 C 39.25 28.046875 39.253906 27.910156 39.253906 27.734375 Z M 36.898438 31.132812 C 36.898438 31.546875 37.015625 31.871094 37.246094 32.105469 C 37.476562 32.359375 37.792969 32.5 38.199219 32.535156 C 38.449219 32.019531 38.667969 31.398438 38.847656 30.667969 C 39.027344 29.941406 39.148438 29.242188 39.21875 28.5625 C 39.039062 28.511719 38.839844 28.46875 38.625 28.433594 C 38.125 28.671875 37.714844 29.042969 37.398438 29.542969 C 37.066406 30.054688 36.898438 30.585938 36.898438 31.132812 Z M 40.929688 29.089844 C 40.960938 29.089844 40.980469 29.066406 40.980469 29.019531 C 40.980469 28.972656 40.964844 28.917969 40.9375 28.855469 C 40.816406 28.648438 40.628906 28.492188 40.371094 28.390625 C 40.113281 28.289062 39.851562 28.238281 39.585938 28.238281 C 39.53125 28.238281 39.445312 28.242188 39.335938 28.253906 L 39.316406 28.488281 C 39.847656 28.597656 40.359375 28.785156 40.839844 29.054688 C 40.886719 29.078125 40.917969 29.089844 40.929688 29.089844 Z M 39.234375 28.261719 C 39.039062 28.292969 38.875 28.335938 38.734375 28.390625 C 39.054688 28.441406 39.214844 28.46875 39.226562 28.46875 C 39.230469 28.421875 39.234375 28.351562 39.234375 28.261719 Z M 42.808594 28.675781 C 42.769531 28.691406 42.730469 28.726562 42.683594 28.777344 C 41.835938 30.355469 41.414062 31.371094 41.414062 31.824219 C 41.414062 31.972656 41.464844 32.050781 41.566406 32.050781 C 41.695312 32.050781 41.875 31.949219 42.105469 31.746094 C 42.140625 31.714844 42.167969 31.691406 42.183594 31.675781 C 42.199219 31.664062 42.203125 31.65625 42.199219 31.65625 C 42.21875 31.65625 42.226562 31.664062 42.226562 31.675781 C 42.226562 31.691406 42.21875 31.710938 42.199219 31.738281 C 41.996094 32.023438 41.789062 32.167969 41.578125 32.167969 C 41.347656 32.167969 41.234375 32.046875 41.234375 31.800781 C 41.234375 31.558594 41.351562 31.117188 41.585938 30.484375 C 41.472656 30.640625 41.390625 30.71875 41.34375 30.71875 C 41.332031 30.71875 41.324219 30.714844 41.324219 30.703125 C 41.324219 30.695312 41.382812 30.609375 41.507812 30.453125 C 41.628906 30.292969 41.695312 30.203125 41.703125 30.1875 C 41.847656 29.773438 42.058594 29.273438 42.34375 28.695312 C 42.628906 28.113281 42.828125 27.726562 42.933594 27.535156 C 42.96875 27.457031 43.046875 27.417969 43.164062 27.417969 C 43.28125 27.417969 43.339844 27.433594 43.339844 27.464844 C 43.339844 27.5 43.164062 27.902344 42.808594 28.675781 Z M 43.429688 31.222656 C 43.4375 31.222656 43.441406 31.226562 43.441406 31.234375 C 43.441406 31.3125 43.316406 31.488281 43.0625 31.753906 C 42.859375 31.957031 42.707031 32.058594 42.601562 32.058594 C 42.367188 32.058594 42.25 31.941406 42.25 31.707031 C 42.25 31.53125 42.292969 31.308594 42.386719 31.042969 L 42.261719 31.234375 C 42.203125 31.335938 42.160156 31.386719 42.136719 31.386719 C 42.128906 31.386719 42.125 31.375 42.125 31.347656 C 42.125 31.324219 42.160156 31.265625 42.226562 31.171875 C 42.296875 31.082031 42.398438 30.894531 42.53125 30.609375 C 42.570312 30.511719 42.621094 30.402344 42.683594 30.28125 C 42.707031 30.242188 42.761719 30.222656 42.84375 30.222656 C 42.929688 30.222656 42.972656 30.242188 42.972656 30.289062 C 42.972656 30.335938 42.949219 30.40625 42.90625 30.496094 C 42.859375 30.589844 42.820312 30.640625 42.789062 30.65625 C 42.546875 31.132812 42.429688 31.488281 42.429688 31.710938 C 42.429688 31.863281 42.480469 31.941406 42.578125 31.941406 C 42.746094 31.941406 42.925781 31.820312 43.125 31.582031 C 43.207031 31.484375 43.257812 31.425781 43.277344 31.402344 C 43.296875 31.382812 43.3125 31.363281 43.332031 31.339844 C 43.351562 31.316406 43.367188 31.296875 43.378906 31.285156 C 43.402344 31.261719 43.417969 31.242188 43.429688 31.222656 Z M 43.214844 29.34375 C 43.316406 29.296875 43.378906 29.273438 43.402344 29.273438 C 43.425781 29.273438 43.4375 29.28125 43.4375 29.292969 C 43.4375 29.304688 43.382812 29.371094 43.277344 29.488281 L 43.171875 29.703125 C 43.132812 29.796875 43.078125 29.839844 43.015625 29.839844 C 42.921875 29.839844 42.875 29.792969 42.875 29.695312 C 42.875 29.648438 42.90625 29.589844 42.96875 29.519531 C 43.03125 29.449219 43.113281 29.390625 43.214844 29.34375 Z M 45.027344 30.3125 C 45.027344 30.394531 45.011719 30.492188 44.972656 30.601562 C 44.9375 30.714844 44.886719 30.773438 44.828125 30.773438 C 44.769531 30.773438 44.738281 30.738281 44.738281 30.667969 C 44.738281 30.640625 44.753906 30.578125 44.78125 30.484375 C 44.8125 30.386719 44.828125 30.304688 44.828125 30.242188 C 44.828125 30.035156 44.746094 29.929688 44.582031 29.929688 C 44.496094 29.929688 44.394531 29.964844 44.265625 30.03125 C 44.140625 30.097656 44.070312 30.132812 44.054688 30.132812 C 44.042969 30.132812 44.035156 30.125 44.035156 30.109375 C 44.035156 30.046875 44.113281 29.988281 44.273438 29.9375 C 44.433594 29.886719 44.558594 29.863281 44.65625 29.863281 C 44.90625 29.863281 45.027344 30.011719 45.027344 30.3125 Z M 43.765625 32.359375 C 43.449219 32.359375 43.289062 32.183594 43.289062 31.824219 C 43.289062 31.464844 43.417969 31.082031 43.667969 30.679688 C 43.921875 30.277344 44.214844 30.074219 44.546875 30.074219 C 44.597656 30.074219 44.621094 30.082031 44.621094 30.097656 C 44.621094 30.117188 44.574219 30.152344 44.484375 30.207031 C 44.257812 30.34375 44.054688 30.558594 43.875 30.847656 C 43.691406 31.140625 43.601562 31.402344 43.601562 31.644531 C 43.601562 32.015625 43.742188 32.203125 44.019531 32.203125 C 44.191406 32.203125 44.378906 32.136719 44.585938 32.003906 C 44.871094 31.816406 45.097656 31.59375 45.261719 31.332031 C 45.304688 31.261719 45.335938 31.230469 45.359375 31.230469 L 45.375 31.242188 C 45.375 31.261719 45.351562 31.300781 45.3125 31.359375 C 45.144531 31.613281 44.914062 31.84375 44.613281 32.050781 C 44.308594 32.257812 44.027344 32.359375 43.765625 32.359375 Z M 47.167969 32.339844 C 47.261719 32.339844 47.339844 32.308594 47.410156 32.242188 C 47.480469 32.179688 47.519531 32.148438 47.53125 32.148438 C 47.542969 32.148438 47.546875 32.152344 47.546875 32.167969 C 47.546875 32.183594 47.542969 32.203125 47.535156 32.230469 C 47.425781 32.410156 47.269531 32.5 47.070312 32.5 C 46.875 32.5 46.648438 32.390625 46.398438 32.171875 C 46.148438 31.953125 45.9375 31.722656 45.765625 31.476562 L 45.503906 31.90625 C 45.394531 32.082031 45.289062 32.210938 45.1875 32.292969 C 45.152344 32.398438 45.078125 32.449219 44.972656 32.449219 C 44.921875 32.449219 44.898438 32.433594 44.898438 32.394531 C 44.898438 32.265625 45.03125 31.859375 45.296875 31.171875 L 45.167969 31.1875 C 45.140625 31.1875 45.125 31.183594 45.125 31.171875 C 45.125 31.109375 45.195312 31.074219 45.332031 31.070312 C 45.585938 30.453125 45.753906 30.046875 45.835938 29.855469 C 45.625 29.96875 45.472656 30.027344 45.382812 30.027344 C 45.363281 30.027344 45.351562 30.019531 45.351562 30.007812 C 45.351562 29.960938 45.386719 29.925781 45.449219 29.894531 C 45.460938 29.890625 45.476562 29.886719 45.503906 29.875 C 45.660156 29.800781 45.800781 29.71875 45.925781 29.628906 L 46.707031 27.886719 C 46.757812 27.78125 46.863281 27.726562 47.03125 27.726562 C 47.117188 27.726562 47.160156 27.753906 47.160156 27.804688 C 47.160156 27.824219 47.140625 27.886719 47.097656 27.992188 C 46.964844 28.355469 46.75 28.777344 46.449219 29.253906 C 46.339844 29.390625 46.265625 29.503906 46.222656 29.59375 C 46.152344 29.726562 46.074219 29.882812 45.984375 30.0625 C 45.894531 30.242188 45.742188 30.570312 45.527344 31.042969 C 45.617188 30.953125 45.679688 30.910156 45.710938 30.910156 C 45.746094 30.910156 45.773438 30.9375 45.800781 30.988281 C 45.875 30.964844 45.941406 30.9375 46.003906 30.910156 C 46.015625 30.878906 46.078125 30.765625 46.191406 30.570312 C 46.304688 30.375 46.433594 30.195312 46.582031 30.035156 C 46.796875 29.789062 46.976562 29.667969 47.121094 29.667969 C 47.261719 29.667969 47.335938 29.824219 47.335938 30.132812 C 47.335938 30.511719 46.914062 30.800781 46.078125 30.992188 C 46.050781 31.050781 46.003906 31.125 45.933594 31.222656 C 46.074219 31.476562 46.25 31.707031 46.449219 31.917969 C 46.71875 32.199219 46.957031 32.339844 47.167969 32.339844 Z M 46.996094 30.089844 C 46.996094 29.960938 46.964844 29.894531 46.90625 29.894531 C 46.804688 29.894531 46.605469 30.121094 46.3125 30.566406 L 46.140625 30.875 C 46.710938 30.667969 46.996094 30.40625 46.996094 30.089844 Z M 45.71875 31.402344 C 45.667969 31.3125 45.621094 31.21875 45.574219 31.117188 L 45.5 31.125 C 45.414062 31.332031 45.320312 31.675781 45.214844 32.152344 C 45.382812 31.960938 45.546875 31.710938 45.71875 31.402344 Z M 51.101562 29.945312 C 51.101562 30.023438 50.714844 30.171875 49.9375 30.394531 C 49.730469 30.792969 49.601562 31.050781 49.554688 31.160156 C 49.4375 31.445312 49.378906 31.71875 49.378906 31.980469 C 49.378906 32.132812 49.425781 32.210938 49.527344 32.210938 C 49.652344 32.210938 49.816406 32.121094 50.019531 31.945312 L 50.328125 31.675781 C 50.34375 31.675781 50.351562 31.683594 50.351562 31.699219 C 50.351562 31.710938 50.34375 31.734375 50.328125 31.761719 C 50.257812 31.871094 50.132812 31.992188 49.957031 32.128906 C 49.78125 32.265625 49.644531 32.332031 49.542969 32.332031 C 49.3125 32.332031 49.199219 32.191406 49.199219 31.914062 C 49.199219 31.710938 49.25 31.460938 49.347656 31.160156 C 49.304688 31.03125 49.210938 30.9375 49.074219 30.875 C 49.03125 30.859375 48.96875 30.832031 48.886719 30.800781 C 48.804688 30.769531 48.738281 30.742188 48.6875 30.71875 C 48.636719 30.695312 48.609375 30.648438 48.609375 30.574219 C 48.609375 30.503906 48.644531 30.460938 48.707031 30.449219 L 48.894531 30.449219 C 49.132812 30.449219 49.386719 30.421875 49.660156 30.367188 L 50.324219 28.882812 C 50.355469 28.796875 50.433594 28.757812 50.554688 28.757812 C 50.675781 28.757812 50.738281 28.78125 50.738281 28.824219 C 50.738281 28.839844 50.648438 29.035156 50.476562 29.414062 C 50.304688 29.796875 50.210938 29.996094 50.191406 30.015625 L 50.074219 30.125 L 49.992188 30.289062 C 50.101562 30.257812 50.4375 30.144531 51 29.945312 C 51.046875 29.933594 51.074219 29.929688 51.085938 29.929688 C 51.097656 29.929688 51.101562 29.933594 51.101562 29.945312 Z M 49.613281 30.484375 C 49.355469 30.542969 49.121094 30.589844 48.914062 30.621094 C 49.152344 30.746094 49.308594 30.894531 49.378906 31.0625 C 49.421875 30.933594 49.5 30.742188 49.613281 30.484375 Z M 52.171875 30.816406 L 52.191406 30.683594 C 52.191406 30.609375 52.167969 30.546875 52.121094 30.5 C 52.070312 30.453125 52.015625 30.429688 51.949219 30.429688 C 51.894531 30.988281 51.757812 31.417969 51.542969 31.71875 L 51.757812 31.71875 C 51.695312 31.757812 51.652344 31.773438 51.621094 31.773438 C 51.59375 31.773438 51.570312 31.773438 51.5625 31.765625 C 51.550781 31.761719 51.535156 31.761719 51.523438 31.761719 C 51.527344 31.765625 51.515625 31.78125 51.484375 31.804688 C 51.453125 31.832031 51.367188 31.90625 51.226562 32.03125 C 51.082031 32.152344 50.949219 32.214844 50.824219 32.214844 C 50.644531 32.214844 50.554688 32.101562 50.554688 31.871094 C 50.554688 31.589844 50.660156 31.300781 50.875 31.007812 C 50.800781 30.828125 50.761719 30.636719 50.761719 30.4375 C 50.761719 30.238281 50.800781 30.0625 50.878906 29.917969 C 51.03125 29.628906 51.222656 29.480469 51.445312 29.480469 C 51.730469 29.480469 51.898438 29.726562 51.941406 30.214844 C 52.171875 30.222656 52.289062 30.34375 52.289062 30.574219 C 52.289062 30.761719 52.257812 30.855469 52.199219 30.855469 C 52.179688 30.855469 52.171875 30.84375 52.171875 30.816406 Z M 51.453125 29.632812 C 51.304688 29.632812 51.171875 29.777344 51.046875 30.070312 C 50.96875 30.242188 50.929688 30.410156 50.929688 30.574219 C 50.929688 30.734375 50.9375 30.855469 50.949219 30.933594 C 51.230469 30.554688 51.523438 30.320312 51.832031 30.226562 C 51.742188 29.832031 51.613281 29.632812 51.453125 29.632812 Z M 51.839844 30.421875 C 51.738281 30.433594 51.582031 30.527344 51.367188 30.699219 C 51.152344 30.875 51.019531 31.011719 50.96875 31.113281 C 51.066406 31.460938 51.183594 31.652344 51.320312 31.683594 C 51.433594 31.582031 51.546875 31.382812 51.664062 31.082031 C 51.78125 30.785156 51.839844 30.5625 51.839844 30.421875 Z M 50.921875 31.171875 C 50.769531 31.429688 50.695312 31.636719 50.695312 31.785156 C 50.695312 31.933594 50.746094 32.007812 50.847656 32.007812 C 50.96875 32.007812 51.121094 31.914062 51.292969 31.71875 C 51.144531 31.699219 51.019531 31.519531 50.921875 31.171875 Z M 55.90625 31.285156 L 55.703125 31.269531 C 55.53125 31.554688 55.304688 31.800781 55.03125 32.007812 C 54.757812 32.214844 54.472656 32.320312 54.179688 32.320312 C 54.085938 32.320312 54.011719 32.3125 53.953125 32.292969 L 53.929688 32.4375 C 53.917969 32.511719 53.894531 32.546875 53.863281 32.546875 C 53.835938 32.546875 53.820312 32.515625 53.820312 32.457031 C 53.820312 32.390625 53.828125 32.320312 53.839844 32.242188 C 53.734375 32.179688 53.683594 32.097656 53.683594 32.003906 C 53.683594 31.851562 53.804688 31.699219 54.046875 31.554688 C 54.148438 31.257812 54.242188 31.003906 54.332031 30.785156 C 54.234375 30.882812 54.132812 30.996094 54.019531 31.125 C 53.996094 31.148438 53.980469 31.160156 53.964844 31.160156 C 53.953125 31.160156 53.945312 31.152344 53.945312 31.132812 C 53.945312 31.058594 54.097656 30.882812 54.40625 30.601562 C 54.953125 29.242188 55.410156 28.222656 55.773438 27.535156 C 55.824219 27.457031 55.90625 27.417969 56.019531 27.417969 C 56.132812 27.417969 56.1875 27.4375 56.1875 27.480469 C 56.1875 27.484375 56.027344 27.796875 55.710938 28.414062 C 55.394531 29.035156 55.089844 29.65625 54.800781 30.277344 C 55.167969 30.015625 55.460938 29.882812 55.675781 29.882812 C 55.894531 29.882812 56 30.023438 56 30.304688 C 56 30.589844 55.917969 30.882812 55.753906 31.1875 C 55.882812 31.191406 55.945312 31.214844 55.945312 31.257812 C 55.945312 31.273438 55.933594 31.285156 55.90625 31.285156 Z M 55.496094 31.179688 C 55.566406 30.988281 55.601562 30.765625 55.601562 30.511719 C 55.601562 30.257812 55.523438 30.132812 55.363281 30.132812 C 55.203125 30.132812 54.988281 30.238281 54.71875 30.449219 C 54.488281 30.949219 54.339844 31.28125 54.277344 31.4375 C 54.628906 31.289062 55.039062 31.203125 55.496094 31.179688 Z M 54.152344 32.1875 C 54.417969 32.1875 54.675781 32.097656 54.925781 31.914062 C 55.179688 31.734375 55.355469 31.519531 55.457031 31.269531 C 55.003906 31.308594 54.578125 31.4375 54.179688 31.65625 L 53.984375 32.175781 C 54.050781 32.183594 54.105469 32.1875 54.152344 32.1875 Z M 53.957031 31.808594 C 53.875 31.886719 53.835938 31.949219 53.835938 31.996094 C 53.835938 32.046875 53.847656 32.085938 53.875 32.113281 C 53.890625 32.042969 53.917969 31.941406 53.957031 31.808594 Z M 58.03125 31.773438 L 58.03125 31.789062 C 57.871094 32.007812 57.691406 32.121094 57.5 32.121094 C 57.304688 32.121094 57.210938 31.949219 57.210938 31.609375 C 57.210938 31.46875 57.222656 31.273438 57.242188 31.023438 C 57.070312 31.351562 56.78125 31.675781 56.382812 31.988281 C 56.339844 32.019531 56.261719 32.082031 56.148438 32.167969 C 56.125 32.1875 56.082031 32.195312 56.023438 32.195312 C 55.96875 32.195312 55.941406 32.183594 55.941406 32.152344 C 55.941406 31.988281 56.015625 31.761719 56.164062 31.46875 C 56.3125 31.179688 56.40625 30.972656 56.441406 30.84375 C 56.480469 30.71875 56.5 30.539062 56.5 30.3125 C 56.480469 30.382812 56.398438 30.546875 56.25 30.800781 C 56.027344 31.183594 55.90625 31.375 55.878906 31.375 C 55.851562 31.375 55.835938 31.363281 55.835938 31.347656 L 56.042969 30.992188 C 56.265625 30.609375 56.40625 30.28125 56.472656 30.019531 C 56.5 29.902344 56.554688 29.839844 56.636719 29.839844 C 56.71875 29.839844 56.761719 29.945312 56.761719 30.15625 C 56.761719 30.363281 56.699219 30.65625 56.582031 31.035156 L 56.292969 31.941406 C 56.679688 31.644531 57 31.285156 57.257812 30.855469 C 57.304688 30.535156 57.367188 30.320312 57.445312 30.222656 C 57.472656 30.1875 57.523438 30.171875 57.597656 30.171875 C 57.675781 30.171875 57.714844 30.199219 57.714844 30.25 C 57.714844 30.386719 57.667969 30.511719 57.582031 30.628906 C 57.480469 30.972656 57.429688 31.308594 57.429688 31.636719 C 57.429688 31.855469 57.5 31.96875 57.636719 31.96875 C 57.707031 31.96875 57.777344 31.9375 57.847656 31.878906 C 57.917969 31.816406 57.964844 31.777344 57.984375 31.761719 C 58.007812 31.742188 58.015625 31.734375 58.011719 31.734375 C 58.023438 31.734375 58.03125 31.746094 58.03125 31.773438 Z M 60.527344 29.433594 C 60.527344 29.449219 60.507812 29.460938 60.464844 29.472656 C 60.425781 29.484375 60.378906 29.5 60.335938 29.523438 C 60.128906 29.671875 59.949219 30.0625 59.796875 30.703125 C 59.566406 31.683594 59.445312 32.1875 59.4375 32.210938 C 59.257812 32.847656 59.066406 33.355469 58.859375 33.726562 C 58.574219 34.234375 58.226562 34.601562 57.824219 34.824219 C 57.632812 34.933594 57.421875 34.984375 57.1875 34.984375 C 56.953125 34.984375 56.695312 34.878906 56.414062 34.667969 C 56.132812 34.457031 55.992188 34.234375 55.992188 34.003906 C 55.992188 33.984375 56 33.976562 56.011719 33.976562 C 56.023438 33.976562 56.035156 33.992188 56.046875 34.019531 C 56.242188 34.5 56.589844 34.742188 57.097656 34.742188 C 57.355469 34.742188 57.59375 34.679688 57.816406 34.558594 C 58.242188 34.316406 58.578125 33.941406 58.816406 33.429688 C 58.96875 33.085938 59.109375 32.59375 59.238281 31.953125 C 59.347656 31.359375 59.441406 30.921875 59.519531 30.636719 L 59.636719 30.207031 C 59.347656 30.433594 59 31.078125 58.59375 32.148438 C 58.59375 32.15625 58.582031 32.160156 58.554688 32.160156 C 58.527344 32.160156 58.496094 32.144531 58.460938 32.109375 C 58.425781 32.074219 58.410156 32.042969 58.410156 32.007812 L 58.527344 31.71875 C 58.613281 31.460938 58.65625 31.082031 58.65625 30.585938 C 58.65625 30.210938 58.578125 30.019531 58.414062 30.019531 C 58.328125 30.019531 58.21875 30.078125 58.089844 30.191406 L 57.898438 30.371094 C 57.882812 30.371094 57.878906 30.367188 57.878906 30.355469 C 57.878906 30.34375 57.882812 30.324219 57.890625 30.296875 C 57.957031 30.195312 58.0625 30.09375 58.207031 29.984375 C 58.355469 29.878906 58.480469 29.828125 58.582031 29.828125 C 58.773438 29.828125 58.871094 30.015625 58.871094 30.386719 C 58.871094 30.691406 58.808594 31.027344 58.683594 31.394531 C 59.066406 30.691406 59.390625 30.269531 59.660156 30.132812 C 59.726562 29.882812 59.804688 29.707031 59.894531 29.605469 C 60.007812 29.464844 60.179688 29.390625 60.402344 29.390625 C 60.488281 29.390625 60.527344 29.40625 60.527344 29.433594 Z M 60.527344 29.433594 "/>
</g>
</g>
</svg>
